solid ascii
  facet normal 1.000000e+000 -0.000000e+000 0.000000e+000
    outer loop
      vertex   -3.890000e+000 -3.100000e-001 2.000000e+002
      vertex   -3.890000e+000 -3.100000e-001 0.000000e+000
      vertex   -3.890000e+000 3.100000e-001 2.000000e+002
    endloop
  endfacet
  facet normal 1.000000e+000 -0.000000e+000 0.000000e+000
    outer loop
      vertex   -3.890000e+000 3.100000e-001 2.000000e+002
      vertex   -3.890000e+000 -3.100000e-001 0.000000e+000
      vertex   -3.890000e+000 3.100000e-001 0.000000e+000
    endloop
  endfacet
  facet normal 1.092739e-016 -1.000000e+000 0.000000e+000
    outer loop
      vertex   -6.430000e+000 -3.100000e-001 2.000000e+002
      vertex   -6.430000e+000 -3.100000e-001 0.000000e+000
      vertex   -3.890000e+000 -3.100000e-001 2.000000e+002
    endloop
  endfacet
  facet normal 1.092739e-016 -1.000000e+000 0.000000e+000
    outer loop
      vertex   -3.890000e+000 -3.100000e-001 2.000000e+002
      vertex   -6.430000e+000 -3.100000e-001 0.000000e+000
      vertex   -3.890000e+000 -3.100000e-001 0.000000e+000
    endloop
  endfacet
  facet normal -1.000000e+000 -0.000000e+000 -0.000000e+000
    outer loop
      vertex   -6.430000e+000 3.100000e-001 2.000000e+002
      vertex   -6.430000e+000 3.100000e-001 0.000000e+000
      vertex   -6.430000e+000 -3.100000e-001 2.000000e+002
    endloop
  endfacet
  facet normal -1.000000e+000 -0.000000e+000 -0.000000e+000
    outer loop
      vertex   -6.430000e+000 -3.100000e-001 2.000000e+002
      vertex   -6.430000e+000 3.100000e-001 0.000000e+000
      vertex   -6.430000e+000 -3.100000e-001 0.000000e+000
    endloop
  endfacet
  facet normal 0.000000e+000 1.000000e+000 0.000000e+000
    outer loop
      vertex   -3.890000e+000 3.100000e-001 2.000000e+002
      vertex   -3.890000e+000 3.100000e-001 0.000000e+000
      vertex   -6.430000e+000 3.100000e-001 2.000000e+002
    endloop
  endfacet
  facet normal 0.000000e+000 1.000000e+000 0.000000e+000
    outer loop
      vertex   -6.430000e+000 3.100000e-001 2.000000e+002
      vertex   -3.890000e+000 3.100000e-001 0.000000e+000
      vertex   -6.430000e+000 3.100000e-001 0.000000e+000
    endloop
  endfacet
  facet normal 0.000000e+000 0.000000e+000 1.000000e+000
    outer loop
      vertex   -3.890000e+000 3.100000e-001 2.000000e+002
      vertex   -6.430000e+000 3.100000e-001 2.000000e+002
      vertex   -3.890000e+000 -3.100000e-001 2.000000e+002
    endloop
  endfacet
  facet normal 0.000000e+000 0.000000e+000 1.000000e+000
    outer loop
      vertex   -3.890000e+000 -3.100000e-001 2.000000e+002
      vertex   -6.430000e+000 3.100000e-001 2.000000e+002
      vertex   -6.430000e+000 -3.100000e-001 2.000000e+002
    endloop
  endfacet
  facet normal 0.000000e+000 -0.000000e+000 -1.000000e+000
    outer loop
      vertex   -6.430000e+000 3.100000e-001 0.000000e+000
      vertex   -3.890000e+000 3.100000e-001 0.000000e+000
      vertex   -6.430000e+000 -3.100000e-001 0.000000e+000
    endloop
  endfacet
  facet normal 0.000000e+000 0.000000e+000 -1.000000e+000
    outer loop
      vertex   -6.430000e+000 -3.100000e-001 0.000000e+000
      vertex   -3.890000e+000 3.100000e-001 0.000000e+000
      vertex   -3.890000e+000 -3.100000e-001 0.000000e+000
    endloop
  endfacet
endsolid
