solid ascii
  facet normal 1.000000e+000 -0.000000e+000 0.000000e+000
    outer loop
      vertex   1.270000e+000 3.300000e-001 2.000000e+002
      vertex   1.270000e+000 3.300000e-001 0.000000e+000
      vertex   1.270000e+000 9.500000e-001 2.000000e+002
    endloop
  endfacet
  facet normal 1.000000e+000 -0.000000e+000 0.000000e+000
    outer loop
      vertex   1.270000e+000 9.500000e-001 2.000000e+002
      vertex   1.270000e+000 3.300000e-001 0.000000e+000
      vertex   1.270000e+000 9.500000e-001 0.000000e+000
    endloop
  endfacet
  facet normal 1.092739e-016 -1.000000e+000 0.000000e+000
    outer loop
      vertex   -1.270000e+000 3.300000e-001 2.000000e+002
      vertex   -1.270000e+000 3.300000e-001 0.000000e+000
      vertex   1.270000e+000 3.300000e-001 2.000000e+002
    endloop
  endfacet
  facet normal 1.092739e-016 -1.000000e+000 0.000000e+000
    outer loop
      vertex   1.270000e+000 3.300000e-001 2.000000e+002
      vertex   -1.270000e+000 3.300000e-001 0.000000e+000
      vertex   1.270000e+000 3.300000e-001 0.000000e+000
    endloop
  endfacet
  facet normal -1.000000e+000 -0.000000e+000 -0.000000e+000
    outer loop
      vertex   -1.270000e+000 9.500000e-001 2.000000e+002
      vertex   -1.270000e+000 9.500000e-001 0.000000e+000
      vertex   -1.270000e+000 3.300000e-001 2.000000e+002
    endloop
  endfacet
  facet normal -1.000000e+000 -0.000000e+000 -0.000000e+000
    outer loop
      vertex   -1.270000e+000 3.300000e-001 2.000000e+002
      vertex   -1.270000e+000 9.500000e-001 0.000000e+000
      vertex   -1.270000e+000 3.300000e-001 0.000000e+000
    endloop
  endfacet
  facet normal 0.000000e+000 1.000000e+000 0.000000e+000
    outer loop
      vertex   1.270000e+000 9.500000e-001 2.000000e+002
      vertex   1.270000e+000 9.500000e-001 0.000000e+000
      vertex   -1.270000e+000 9.500000e-001 2.000000e+002
    endloop
  endfacet
  facet normal 0.000000e+000 1.000000e+000 0.000000e+000
    outer loop
      vertex   -1.270000e+000 9.500000e-001 2.000000e+002
      vertex   1.270000e+000 9.500000e-001 0.000000e+000
      vertex   -1.270000e+000 9.500000e-001 0.000000e+000
    endloop
  endfacet
  facet normal 0.000000e+000 0.000000e+000 1.000000e+000
    outer loop
      vertex   1.270000e+000 9.500000e-001 2.000000e+002
      vertex   -1.270000e+000 9.500000e-001 2.000000e+002
      vertex   1.270000e+000 3.300000e-001 2.000000e+002
    endloop
  endfacet
  facet normal 0.000000e+000 0.000000e+000 1.000000e+000
    outer loop
      vertex   1.270000e+000 3.300000e-001 2.000000e+002
      vertex   -1.270000e+000 9.500000e-001 2.000000e+002
      vertex   -1.270000e+000 3.300000e-001 2.000000e+002
    endloop
  endfacet
  facet normal 0.000000e+000 -0.000000e+000 -1.000000e+000
    outer loop
      vertex   -1.270000e+000 9.500000e-001 0.000000e+000
      vertex   1.270000e+000 9.500000e-001 0.000000e+000
      vertex   -1.270000e+000 3.300000e-001 0.000000e+000
    endloop
  endfacet
  facet normal 0.000000e+000 0.000000e+000 -1.000000e+000
    outer loop
      vertex   -1.270000e+000 3.300000e-001 0.000000e+000
      vertex   1.270000e+000 9.500000e-001 0.000000e+000
      vertex   1.270000e+000 3.300000e-001 0.000000e+000
    endloop
  endfacet
endsolid
