solid ascii
  facet normal 1.000000e+000 -1.409807e-015 -1.909584e-016
    outer loop
      vertex   -3.855000e+000 1.605000e+000 2.000000e+002
      vertex   -3.855000e+000 1.605000e+000 7.395013e-016
      vertex   -3.855000e+000 2.235000e+000 2.000000e+002
    endloop
  endfacet
  facet normal 1.000000e+000 -1.409807e-015 -1.909584e-016
    outer loop
      vertex   -3.855000e+000 2.235000e+000 2.000000e+002
      vertex   -3.855000e+000 1.605000e+000 7.395013e-016
      vertex   -3.855000e+000 2.235000e+000 7.395013e-016
    endloop
  endfacet
  facet normal -1.915679e-015 -1.000000e+000 3.658149e-031
    outer loop
      vertex   -3.855000e+000 2.235000e+000 2.000000e+002
      vertex   -3.855000e+000 2.235000e+000 7.395013e-016
      vertex   -1.305000e+000 2.235000e+000 2.000000e+002
    endloop
  endfacet
  facet normal -1.915679e-015 -1.000000e+000 3.650415e-031
    outer loop
      vertex   -1.305000e+000 2.235000e+000 2.000000e+002
      vertex   -3.855000e+000 2.235000e+000 7.395013e-016
      vertex   -1.305000e+000 2.235000e+000 2.503370e-016
    endloop
  endfacet
  facet normal -1.000000e+000 1.409807e-015 1.920686e-016
    outer loop
      vertex   -1.305000e+000 2.235000e+000 2.000000e+002
      vertex   -1.305000e+000 2.235000e+000 2.503370e-016
      vertex   -1.305000e+000 1.605000e+000 2.000000e+002
    endloop
  endfacet
  facet normal -1.000000e+000 1.409807e-015 1.920686e-016
    outer loop
      vertex   -1.305000e+000 1.605000e+000 2.000000e+002
      vertex   -1.305000e+000 2.235000e+000 2.503370e-016
      vertex   -1.305000e+000 1.605000e+000 2.503370e-016
    endloop
  endfacet
  facet normal 2.351061e-015 1.000000e+000 -4.515649e-031
    outer loop
      vertex   -1.305000e+000 1.605000e+000 2.000000e+002
      vertex   -1.305000e+000 1.605000e+000 2.503370e-016
      vertex   -3.855000e+000 1.605000e+000 2.000000e+002
    endloop
  endfacet
  facet normal 2.351061e-015 1.000000e+000 -4.454744e-031
    outer loop
      vertex   -3.855000e+000 1.605000e+000 2.000000e+002
      vertex   -1.305000e+000 1.605000e+000 2.503370e-016
      vertex   -3.855000e+000 1.605000e+000 7.395013e-016
    endloop
  endfacet
  facet normal -1.000000e+000 2.775558e-015 1.931788e-016
    outer loop
      vertex   -3.860000e+000 2.240000e+000 2.000000e+002
      vertex   -3.860000e+000 2.240000e+000 7.404605e-016
      vertex   -3.860000e+000 1.600000e+000 2.000000e+002
    endloop
  endfacet
  facet normal -1.000000e+000 2.775558e-015 1.931788e-016
    outer loop
      vertex   -3.860000e+000 1.600000e+000 2.000000e+002
      vertex   -3.860000e+000 2.240000e+000 7.404605e-016
      vertex   -3.860000e+000 1.600000e+000 7.404605e-016
    endloop
  endfacet
  facet normal 2.081668e-015 1.000000e+000 -3.998231e-031
    outer loop
      vertex   -1.300000e+000 2.240000e+000 2.000000e+002
      vertex   -1.300000e+000 2.240000e+000 2.493779e-016
      vertex   -3.860000e+000 2.240000e+000 2.000000e+002
    endloop
  endfacet
  facet normal 2.081668e-015 1.000000e+000 -4.036749e-031
    outer loop
      vertex   -3.860000e+000 2.240000e+000 2.000000e+002
      vertex   -1.300000e+000 2.240000e+000 2.493779e-016
      vertex   -3.860000e+000 2.240000e+000 7.404605e-016
    endloop
  endfacet
  facet normal 1.000000e+000 -1.387779e-015 -1.920686e-016
    outer loop
      vertex   -1.300000e+000 1.600000e+000 2.000000e+002
      vertex   -1.300000e+000 1.600000e+000 2.493779e-016
      vertex   -1.300000e+000 2.240000e+000 2.000000e+002
    endloop
  endfacet
  facet normal 1.000000e+000 -1.387779e-015 -1.920686e-016
    outer loop
      vertex   -1.300000e+000 2.240000e+000 2.000000e+002
      vertex   -1.300000e+000 1.600000e+000 2.493779e-016
      vertex   -1.300000e+000 2.240000e+000 2.493779e-016
    endloop
  endfacet
  facet normal -2.341877e-015 -1.000000e+000 4.524009e-031
    outer loop
      vertex   -3.860000e+000 1.600000e+000 2.000000e+002
      vertex   -3.860000e+000 1.600000e+000 7.404605e-016
      vertex   -1.300000e+000 1.600000e+000 2.000000e+002
    endloop
  endfacet
  facet normal -2.341877e-015 -1.000000e+000 4.498972e-031
    outer loop
      vertex   -1.300000e+000 1.600000e+000 2.000000e+002
      vertex   -3.860000e+000 1.600000e+000 7.404605e-016
      vertex   -1.300000e+000 1.600000e+000 2.493779e-016
    endloop
  endfacet
  facet normal 0.000000e+000 0.000000e+000 1.000000e+000
    outer loop
      vertex   -3.855000e+000 2.235000e+000 2.000000e+002
      vertex   -3.860000e+000 2.240000e+000 2.000000e+002
      vertex   -3.855000e+000 1.605000e+000 2.000000e+002
    endloop
  endfacet
  facet normal -0.000000e+000 -0.000000e+000 1.000000e+000
    outer loop
      vertex   -3.855000e+000 2.235000e+000 2.000000e+002
      vertex   -1.305000e+000 2.235000e+000 2.000000e+002
      vertex   -3.860000e+000 2.240000e+000 2.000000e+002
    endloop
  endfacet
  facet normal -0.000000e+000 0.000000e+000 1.000000e+000
    outer loop
      vertex   -3.860000e+000 2.240000e+000 2.000000e+002
      vertex   -1.305000e+000 2.235000e+000 2.000000e+002
      vertex   -1.300000e+000 2.240000e+000 2.000000e+002
    endloop
  endfacet
  facet normal 0.000000e+000 0.000000e+000 1.000000e+000
    outer loop
      vertex   -1.300000e+000 2.240000e+000 2.000000e+002
      vertex   -1.305000e+000 2.235000e+000 2.000000e+002
      vertex   -1.305000e+000 1.605000e+000 2.000000e+002
    endloop
  endfacet
  facet normal 0.000000e+000 0.000000e+000 1.000000e+000
    outer loop
      vertex   -1.300000e+000 1.600000e+000 2.000000e+002
      vertex   -1.305000e+000 1.605000e+000 2.000000e+002
      vertex   -3.855000e+000 1.605000e+000 2.000000e+002
    endloop
  endfacet
  facet normal 0.000000e+000 -0.000000e+000 1.000000e+000
    outer loop
      vertex   -3.860000e+000 1.600000e+000 2.000000e+002
      vertex   -3.855000e+000 1.605000e+000 2.000000e+002
      vertex   -3.860000e+000 2.240000e+000 2.000000e+002
    endloop
  endfacet
  facet normal -0.000000e+000 -0.000000e+000 1.000000e+000
    outer loop
      vertex   -3.860000e+000 1.600000e+000 2.000000e+002
      vertex   -1.300000e+000 1.600000e+000 2.000000e+002
      vertex   -3.855000e+000 1.605000e+000 2.000000e+002
    endloop
  endfacet
  facet normal 0.000000e+000 0.000000e+000 1.000000e+000
    outer loop
      vertex   -1.300000e+000 2.240000e+000 2.000000e+002
      vertex   -1.305000e+000 1.605000e+000 2.000000e+002
      vertex   -1.300000e+000 1.600000e+000 2.000000e+002
    endloop
  endfacet
  facet normal -1.918291e-016 1.139222e-031 -1.000000e+000
    outer loop
      vertex   -3.855000e+000 1.605000e+000 7.395013e-016
      vertex   -3.860000e+000 2.240000e+000 7.404605e-016
      vertex   -3.855000e+000 2.235000e+000 7.395013e-016
    endloop
  endfacet
  facet normal -1.918291e-016 -8.386477e-032 -1.000000e+000
    outer loop
      vertex   -3.855000e+000 1.605000e+000 7.395013e-016
      vertex   -3.860000e+000 1.600000e+000 7.404605e-016
      vertex   -3.860000e+000 2.240000e+000 7.404605e-016
    endloop
  endfacet
  facet normal -1.918291e-016 -1.546786e-029 -1.000000e+000
    outer loop
      vertex   -3.855000e+000 1.605000e+000 7.395013e-016
      vertex   -1.305000e+000 1.605000e+000 2.503370e-016
      vertex   -3.860000e+000 1.600000e+000 7.404605e-016
    endloop
  endfacet
  facet normal -1.918291e-016 -2.888895e-030 -1.000000e+000
    outer loop
      vertex   -3.860000e+000 1.600000e+000 7.404605e-016
      vertex   -1.305000e+000 1.605000e+000 2.503370e-016
      vertex   -1.300000e+000 1.600000e+000 2.493779e-016
    endloop
  endfacet
  facet normal -1.918291e-016 3.526483e-032 -1.000000e+000
    outer loop
      vertex   -1.300000e+000 1.600000e+000 2.493779e-016
      vertex   -1.305000e+000 1.605000e+000 2.503370e-016
      vertex   -1.300000e+000 2.240000e+000 2.493779e-016
    endloop
  endfacet
  facet normal -1.918291e-016 3.566203e-032 -1.000000e+000
    outer loop
      vertex   -1.300000e+000 2.240000e+000 2.493779e-016
      vertex   -1.305000e+000 1.605000e+000 2.503370e-016
      vertex   -1.305000e+000 2.235000e+000 2.503370e-016
    endloop
  endfacet
  facet normal -1.918291e-016 2.900224e-030 -1.000000e+000
    outer loop
      vertex   -3.855000e+000 2.235000e+000 7.395013e-016
      vertex   -1.300000e+000 2.240000e+000 2.493779e-016
      vertex   -1.305000e+000 2.235000e+000 2.503370e-016
    endloop
  endfacet
  facet normal -1.918291e-016 -5.506956e-030 -1.000000e+000
    outer loop
      vertex   -3.855000e+000 2.235000e+000 7.395013e-016
      vertex   -3.860000e+000 2.240000e+000 7.404605e-016
      vertex   -1.300000e+000 2.240000e+000 2.493779e-016
    endloop
  endfacet
endsolid
