solid ascii
  facet normal 1.000000e+000 -1.409807e-015 -1.931788e-016
    outer loop
      vertex   -3.855000e+000 9.650000e-001 2.000000e+002
      vertex   -3.855000e+000 9.650000e-001 7.395013e-016
      vertex   -3.855000e+000 1.595000e+000 2.000000e+002
    endloop
  endfacet
  facet normal 1.000000e+000 -1.409807e-015 -1.931788e-016
    outer loop
      vertex   -3.855000e+000 1.595000e+000 2.000000e+002
      vertex   -3.855000e+000 9.650000e-001 7.395013e-016
      vertex   -3.855000e+000 1.595000e+000 7.395013e-016
    endloop
  endfacet
  facet normal -1.915679e-015 -1.000000e+000 3.700686e-031
    outer loop
      vertex   -3.855000e+000 1.595000e+000 2.000000e+002
      vertex   -3.855000e+000 1.595000e+000 7.395013e-016
      vertex   -1.305000e+000 1.595000e+000 2.000000e+002
    endloop
  endfacet
  facet normal -1.915679e-015 -1.000000e+000 3.650415e-031
    outer loop
      vertex   -1.305000e+000 1.595000e+000 2.000000e+002
      vertex   -3.855000e+000 1.595000e+000 7.395013e-016
      vertex   -1.305000e+000 1.595000e+000 2.503370e-016
    endloop
  endfacet
  facet normal -1.000000e+000 1.409807e-015 1.920686e-016
    outer loop
      vertex   -1.305000e+000 1.595000e+000 2.000000e+002
      vertex   -1.305000e+000 1.595000e+000 2.503370e-016
      vertex   -1.305000e+000 9.650000e-001 2.000000e+002
    endloop
  endfacet
  facet normal -1.000000e+000 1.409807e-015 1.920686e-016
    outer loop
      vertex   -1.305000e+000 9.650000e-001 2.000000e+002
      vertex   -1.305000e+000 1.595000e+000 2.503370e-016
      vertex   -1.305000e+000 9.650000e-001 2.503370e-016
    endloop
  endfacet
  facet normal 2.394599e-015 1.000000e+000 -4.599272e-031
    outer loop
      vertex   -1.305000e+000 9.650000e-001 2.000000e+002
      vertex   -1.305000e+000 9.650000e-001 2.503370e-016
      vertex   -3.855000e+000 9.650000e-001 2.000000e+002
    endloop
  endfacet
  facet normal 2.394599e-015 1.000000e+000 -4.640358e-031
    outer loop
      vertex   -3.855000e+000 9.650000e-001 2.000000e+002
      vertex   -1.305000e+000 9.650000e-001 2.503370e-016
      vertex   -3.855000e+000 9.650000e-001 7.395013e-016
    endloop
  endfacet
  facet normal -1.000000e+000 2.775558e-015 1.909584e-016
    outer loop
      vertex   -3.860000e+000 1.600000e+000 2.000000e+002
      vertex   -3.860000e+000 1.600000e+000 7.404605e-016
      vertex   -3.860000e+000 9.600000e-001 2.000000e+002
    endloop
  endfacet
  facet normal -1.000000e+000 2.775558e-015 1.909584e-016
    outer loop
      vertex   -3.860000e+000 9.600000e-001 2.000000e+002
      vertex   -3.860000e+000 1.600000e+000 7.404605e-016
      vertex   -3.860000e+000 9.600000e-001 7.404605e-016
    endloop
  endfacet
  facet normal 2.081668e-015 1.000000e+000 -3.998231e-031
    outer loop
      vertex   -1.300000e+000 1.600000e+000 2.000000e+002
      vertex   -1.300000e+000 1.600000e+000 2.493779e-016
      vertex   -3.860000e+000 1.600000e+000 2.000000e+002
    endloop
  endfacet
  facet normal 2.081668e-015 1.000000e+000 -4.005934e-031
    outer loop
      vertex   -3.860000e+000 1.600000e+000 2.000000e+002
      vertex   -1.300000e+000 1.600000e+000 2.493779e-016
      vertex   -3.860000e+000 1.600000e+000 7.404605e-016
    endloop
  endfacet
  facet normal 1.000000e+000 -1.387779e-015 -1.920686e-016
    outer loop
      vertex   -1.300000e+000 9.600000e-001 2.000000e+002
      vertex   -1.300000e+000 9.600000e-001 2.493779e-016
      vertex   -1.300000e+000 1.600000e+000 2.000000e+002
    endloop
  endfacet
  facet normal 1.000000e+000 -1.387779e-015 -1.920686e-016
    outer loop
      vertex   -1.300000e+000 1.600000e+000 2.000000e+002
      vertex   -1.300000e+000 9.600000e-001 2.493779e-016
      vertex   -1.300000e+000 1.600000e+000 2.493779e-016
    endloop
  endfacet
  facet normal -2.298509e-015 -1.000000e+000 4.389194e-031
    outer loop
      vertex   -3.860000e+000 9.600000e-001 2.000000e+002
      vertex   -3.860000e+000 9.600000e-001 7.404605e-016
      vertex   -1.300000e+000 9.600000e-001 2.000000e+002
    endloop
  endfacet
  facet normal -2.298509e-015 -1.000000e+000 4.437343e-031
    outer loop
      vertex   -1.300000e+000 9.600000e-001 2.000000e+002
      vertex   -3.860000e+000 9.600000e-001 7.404605e-016
      vertex   -1.300000e+000 9.600000e-001 2.493779e-016
    endloop
  endfacet
  facet normal 0.000000e+000 0.000000e+000 1.000000e+000
    outer loop
      vertex   -3.855000e+000 1.595000e+000 2.000000e+002
      vertex   -3.860000e+000 1.600000e+000 2.000000e+002
      vertex   -3.855000e+000 9.650000e-001 2.000000e+002
    endloop
  endfacet
  facet normal -0.000000e+000 -0.000000e+000 1.000000e+000
    outer loop
      vertex   -3.855000e+000 1.595000e+000 2.000000e+002
      vertex   -1.305000e+000 1.595000e+000 2.000000e+002
      vertex   -3.860000e+000 1.600000e+000 2.000000e+002
    endloop
  endfacet
  facet normal -0.000000e+000 0.000000e+000 1.000000e+000
    outer loop
      vertex   -3.860000e+000 1.600000e+000 2.000000e+002
      vertex   -1.305000e+000 1.595000e+000 2.000000e+002
      vertex   -1.300000e+000 1.600000e+000 2.000000e+002
    endloop
  endfacet
  facet normal 0.000000e+000 0.000000e+000 1.000000e+000
    outer loop
      vertex   -1.300000e+000 1.600000e+000 2.000000e+002
      vertex   -1.305000e+000 1.595000e+000 2.000000e+002
      vertex   -1.305000e+000 9.650000e-001 2.000000e+002
    endloop
  endfacet
  facet normal 0.000000e+000 0.000000e+000 1.000000e+000
    outer loop
      vertex   -1.300000e+000 9.600000e-001 2.000000e+002
      vertex   -1.305000e+000 9.650000e-001 2.000000e+002
      vertex   -3.855000e+000 9.650000e-001 2.000000e+002
    endloop
  endfacet
  facet normal 0.000000e+000 -0.000000e+000 1.000000e+000
    outer loop
      vertex   -3.860000e+000 9.600000e-001 2.000000e+002
      vertex   -3.855000e+000 9.650000e-001 2.000000e+002
      vertex   -3.860000e+000 1.600000e+000 2.000000e+002
    endloop
  endfacet
  facet normal -0.000000e+000 -0.000000e+000 1.000000e+000
    outer loop
      vertex   -3.860000e+000 9.600000e-001 2.000000e+002
      vertex   -1.300000e+000 9.600000e-001 2.000000e+002
      vertex   -3.855000e+000 9.650000e-001 2.000000e+002
    endloop
  endfacet
  facet normal 0.000000e+000 0.000000e+000 1.000000e+000
    outer loop
      vertex   -1.300000e+000 1.600000e+000 2.000000e+002
      vertex   -1.305000e+000 9.650000e-001 2.000000e+002
      vertex   -1.300000e+000 9.600000e-001 2.000000e+002
    endloop
  endfacet
  facet normal -1.918291e-016 -4.251185e-032 -1.000000e+000
    outer loop
      vertex   -3.855000e+000 9.650000e-001 7.395013e-016
      vertex   -3.860000e+000 1.600000e+000 7.404605e-016
      vertex   -3.855000e+000 1.595000e+000 7.395013e-016
    endloop
  endfacet
  facet normal -1.918291e-016 2.242840e-031 -1.000000e+000
    outer loop
      vertex   -3.855000e+000 9.650000e-001 7.395013e-016
      vertex   -3.860000e+000 9.600000e-001 7.404605e-016
      vertex   -3.860000e+000 1.600000e+000 7.404605e-016
    endloop
  endfacet
  facet normal -1.918291e-016 1.546786e-029 -1.000000e+000
    outer loop
      vertex   -3.855000e+000 9.650000e-001 7.395013e-016
      vertex   -1.305000e+000 9.650000e-001 2.503370e-016
      vertex   -3.860000e+000 9.600000e-001 7.404605e-016
    endloop
  endfacet
  facet normal -1.918291e-016 -2.858802e-030 -1.000000e+000
    outer loop
      vertex   -3.860000e+000 9.600000e-001 7.404605e-016
      vertex   -1.305000e+000 9.650000e-001 2.503370e-016
      vertex   -1.300000e+000 9.600000e-001 2.493779e-016
    endloop
  endfacet
  facet normal -1.918291e-016 3.526483e-032 -1.000000e+000
    outer loop
      vertex   -1.300000e+000 9.600000e-001 2.493779e-016
      vertex   -1.305000e+000 9.650000e-001 2.503370e-016
      vertex   -1.300000e+000 1.600000e+000 2.493779e-016
    endloop
  endfacet
  facet normal -1.918291e-016 3.566203e-032 -1.000000e+000
    outer loop
      vertex   -1.300000e+000 1.600000e+000 2.493779e-016
      vertex   -1.305000e+000 9.650000e-001 2.503370e-016
      vertex   -1.305000e+000 1.595000e+000 2.503370e-016
    endloop
  endfacet
  facet normal -1.918291e-016 2.900224e-030 -1.000000e+000
    outer loop
      vertex   -3.855000e+000 1.595000e+000 7.395013e-016
      vertex   -1.300000e+000 1.600000e+000 2.493779e-016
      vertex   -1.305000e+000 1.595000e+000 2.503370e-016
    endloop
  endfacet
  facet normal -1.918291e-016 1.411346e-029 -1.000000e+000
    outer loop
      vertex   -3.855000e+000 1.595000e+000 7.395013e-016
      vertex   -3.860000e+000 1.600000e+000 7.404605e-016
      vertex   -1.300000e+000 1.600000e+000 2.493779e-016
    endloop
  endfacet
endsolid
