solid ascii
  facet normal 1.000000e+000 -0.000000e+000 0.000000e+000
    outer loop
      vertex   -1.310000e+000 9.700000e-001 2.000000e+002
      vertex   -1.310000e+000 9.700000e-001 0.000000e+000
      vertex   -1.310000e+000 1.590000e+000 2.000000e+002
    endloop
  endfacet
  facet normal 1.000000e+000 -0.000000e+000 0.000000e+000
    outer loop
      vertex   -1.310000e+000 1.590000e+000 2.000000e+002
      vertex   -1.310000e+000 9.700000e-001 0.000000e+000
      vertex   -1.310000e+000 1.590000e+000 0.000000e+000
    endloop
  endfacet
  facet normal 8.741914e-017 -1.000000e+000 0.000000e+000
    outer loop
      vertex   -3.850000e+000 9.700000e-001 2.000000e+002
      vertex   -3.850000e+000 9.700000e-001 0.000000e+000
      vertex   -1.310000e+000 9.700000e-001 2.000000e+002
    endloop
  endfacet
  facet normal 8.741914e-017 -1.000000e+000 0.000000e+000
    outer loop
      vertex   -1.310000e+000 9.700000e-001 2.000000e+002
      vertex   -3.850000e+000 9.700000e-001 0.000000e+000
      vertex   -1.310000e+000 9.700000e-001 0.000000e+000
    endloop
  endfacet
  facet normal -1.000000e+000 -0.000000e+000 -0.000000e+000
    outer loop
      vertex   -3.850000e+000 1.590000e+000 2.000000e+002
      vertex   -3.850000e+000 1.590000e+000 0.000000e+000
      vertex   -3.850000e+000 9.700000e-001 2.000000e+002
    endloop
  endfacet
  facet normal -1.000000e+000 -0.000000e+000 -0.000000e+000
    outer loop
      vertex   -3.850000e+000 9.700000e-001 2.000000e+002
      vertex   -3.850000e+000 1.590000e+000 0.000000e+000
      vertex   -3.850000e+000 9.700000e-001 0.000000e+000
    endloop
  endfacet
  facet normal 0.000000e+000 1.000000e+000 0.000000e+000
    outer loop
      vertex   -1.310000e+000 1.590000e+000 2.000000e+002
      vertex   -1.310000e+000 1.590000e+000 0.000000e+000
      vertex   -3.850000e+000 1.590000e+000 2.000000e+002
    endloop
  endfacet
  facet normal 0.000000e+000 1.000000e+000 0.000000e+000
    outer loop
      vertex   -3.850000e+000 1.590000e+000 2.000000e+002
      vertex   -1.310000e+000 1.590000e+000 0.000000e+000
      vertex   -3.850000e+000 1.590000e+000 0.000000e+000
    endloop
  endfacet
  facet normal 0.000000e+000 0.000000e+000 1.000000e+000
    outer loop
      vertex   -1.310000e+000 1.590000e+000 2.000000e+002
      vertex   -3.850000e+000 1.590000e+000 2.000000e+002
      vertex   -1.310000e+000 9.700000e-001 2.000000e+002
    endloop
  endfacet
  facet normal 0.000000e+000 0.000000e+000 1.000000e+000
    outer loop
      vertex   -1.310000e+000 9.700000e-001 2.000000e+002
      vertex   -3.850000e+000 1.590000e+000 2.000000e+002
      vertex   -3.850000e+000 9.700000e-001 2.000000e+002
    endloop
  endfacet
  facet normal 0.000000e+000 -0.000000e+000 -1.000000e+000
    outer loop
      vertex   -3.850000e+000 1.590000e+000 0.000000e+000
      vertex   -1.310000e+000 1.590000e+000 0.000000e+000
      vertex   -3.850000e+000 9.700000e-001 0.000000e+000
    endloop
  endfacet
  facet normal 0.000000e+000 0.000000e+000 -1.000000e+000
    outer loop
      vertex   -3.850000e+000 9.700000e-001 0.000000e+000
      vertex   -1.310000e+000 1.590000e+000 0.000000e+000
      vertex   -1.310000e+000 9.700000e-001 0.000000e+000
    endloop
  endfacet
endsolid
