solid ascii
  facet normal 1.000000e+000 -1.409807e-015 -1.920686e-016
    outer loop
      vertex   -1.275000e+000 6.125000e+000 2.000000e+002
      vertex   -1.275000e+000 6.125000e+000 2.445821e-016
      vertex   -1.275000e+000 6.755000e+000 2.000000e+002
    endloop
  endfacet
  facet normal 1.000000e+000 -1.409807e-015 -1.920686e-016
    outer loop
      vertex   -1.275000e+000 6.755000e+000 2.000000e+002
      vertex   -1.275000e+000 6.125000e+000 2.445821e-016
      vertex   -1.275000e+000 6.755000e+000 2.445821e-016
    endloop
  endfacet
  facet normal -2.089832e-015 -1.000000e+000 4.013910e-031
    outer loop
      vertex   -1.275000e+000 6.755000e+000 2.000000e+002
      vertex   -1.275000e+000 6.755000e+000 2.445821e-016
      vertex   1.275000e+000 6.755000e+000 2.000000e+002
    endloop
  endfacet
  facet normal -2.089832e-015 -1.000000e+000 3.990708e-031
    outer loop
      vertex   1.275000e+000 6.755000e+000 2.000000e+002
      vertex   -1.275000e+000 6.755000e+000 2.445821e-016
      vertex   1.275000e+000 6.755000e+000 -2.445821e-016
    endloop
  endfacet
  facet normal -1.000000e+000 1.409807e-015 1.920686e-016
    outer loop
      vertex   1.275000e+000 6.755000e+000 2.000000e+002
      vertex   1.275000e+000 6.755000e+000 -2.445821e-016
      vertex   1.275000e+000 6.125000e+000 2.000000e+002
    endloop
  endfacet
  facet normal -1.000000e+000 1.409807e-015 1.920686e-016
    outer loop
      vertex   1.275000e+000 6.125000e+000 2.000000e+002
      vertex   1.275000e+000 6.755000e+000 -2.445821e-016
      vertex   1.275000e+000 6.125000e+000 -2.445821e-016
    endloop
  endfacet
  facet normal 2.438137e-015 1.000000e+000 -4.682895e-031
    outer loop
      vertex   1.275000e+000 6.125000e+000 2.000000e+002
      vertex   1.275000e+000 6.125000e+000 -2.445821e-016
      vertex   -1.275000e+000 6.125000e+000 2.000000e+002
    endloop
  endfacet
  facet normal 2.438137e-015 1.000000e+000 -4.640358e-031
    outer loop
      vertex   -1.275000e+000 6.125000e+000 2.000000e+002
      vertex   1.275000e+000 6.125000e+000 -2.445821e-016
      vertex   -1.275000e+000 6.125000e+000 2.445821e-016
    endloop
  endfacet
  facet normal -1.000000e+000 2.775558e-015 1.920686e-016
    outer loop
      vertex   -1.280000e+000 6.760000e+000 2.000000e+002
      vertex   -1.280000e+000 6.760000e+000 2.455413e-016
      vertex   -1.280000e+000 6.120000e+000 2.000000e+002
    endloop
  endfacet
  facet normal -1.000000e+000 2.775558e-015 1.920686e-016
    outer loop
      vertex   -1.280000e+000 6.120000e+000 2.000000e+002
      vertex   -1.280000e+000 6.760000e+000 2.455413e-016
      vertex   -1.280000e+000 6.120000e+000 2.455413e-016
    endloop
  endfacet
  facet normal 2.428613e-015 1.000000e+000 -4.664602e-031
    outer loop
      vertex   1.280000e+000 6.760000e+000 2.000000e+002
      vertex   1.280000e+000 6.760000e+000 -2.455413e-016
      vertex   -1.280000e+000 6.760000e+000 2.000000e+002
    endloop
  endfacet
  facet normal 2.428613e-015 1.000000e+000 -4.683862e-031
    outer loop
      vertex   -1.280000e+000 6.760000e+000 2.000000e+002
      vertex   1.280000e+000 6.760000e+000 -2.455413e-016
      vertex   -1.280000e+000 6.760000e+000 2.455413e-016
    endloop
  endfacet
  facet normal 1.000000e+000 -1.387779e-015 -1.920686e-016
    outer loop
      vertex   1.280000e+000 6.120000e+000 2.000000e+002
      vertex   1.280000e+000 6.120000e+000 -2.455413e-016
      vertex   1.280000e+000 6.760000e+000 2.000000e+002
    endloop
  endfacet
  facet normal 1.000000e+000 -1.387779e-015 -1.920686e-016
    outer loop
      vertex   1.280000e+000 6.760000e+000 2.000000e+002
      vertex   1.280000e+000 6.120000e+000 -2.455413e-016
      vertex   1.280000e+000 6.760000e+000 -2.455413e-016
    endloop
  endfacet
  facet normal -2.081668e-015 -1.000000e+000 3.998231e-031
    outer loop
      vertex   -1.280000e+000 6.120000e+000 2.000000e+002
      vertex   -1.280000e+000 6.120000e+000 2.455413e-016
      vertex   1.280000e+000 6.120000e+000 2.000000e+002
    endloop
  endfacet
  facet normal -2.081668e-015 -1.000000e+000 4.036749e-031
    outer loop
      vertex   1.280000e+000 6.120000e+000 2.000000e+002
      vertex   -1.280000e+000 6.120000e+000 2.455413e-016
      vertex   1.280000e+000 6.120000e+000 -2.455413e-016
    endloop
  endfacet
  facet normal 0.000000e+000 0.000000e+000 1.000000e+000
    outer loop
      vertex   -1.275000e+000 6.755000e+000 2.000000e+002
      vertex   -1.280000e+000 6.760000e+000 2.000000e+002
      vertex   -1.275000e+000 6.125000e+000 2.000000e+002
    endloop
  endfacet
  facet normal -0.000000e+000 -0.000000e+000 1.000000e+000
    outer loop
      vertex   -1.275000e+000 6.755000e+000 2.000000e+002
      vertex   1.275000e+000 6.755000e+000 2.000000e+002
      vertex   -1.280000e+000 6.760000e+000 2.000000e+002
    endloop
  endfacet
  facet normal -0.000000e+000 0.000000e+000 1.000000e+000
    outer loop
      vertex   -1.280000e+000 6.760000e+000 2.000000e+002
      vertex   1.275000e+000 6.755000e+000 2.000000e+002
      vertex   1.280000e+000 6.760000e+000 2.000000e+002
    endloop
  endfacet
  facet normal 0.000000e+000 0.000000e+000 1.000000e+000
    outer loop
      vertex   1.280000e+000 6.760000e+000 2.000000e+002
      vertex   1.275000e+000 6.755000e+000 2.000000e+002
      vertex   1.275000e+000 6.125000e+000 2.000000e+002
    endloop
  endfacet
  facet normal 0.000000e+000 0.000000e+000 1.000000e+000
    outer loop
      vertex   1.280000e+000 6.120000e+000 2.000000e+002
      vertex   1.275000e+000 6.125000e+000 2.000000e+002
      vertex   -1.275000e+000 6.125000e+000 2.000000e+002
    endloop
  endfacet
  facet normal 0.000000e+000 -0.000000e+000 1.000000e+000
    outer loop
      vertex   -1.280000e+000 6.120000e+000 2.000000e+002
      vertex   -1.275000e+000 6.125000e+000 2.000000e+002
      vertex   -1.280000e+000 6.760000e+000 2.000000e+002
    endloop
  endfacet
  facet normal -0.000000e+000 -0.000000e+000 1.000000e+000
    outer loop
      vertex   -1.280000e+000 6.120000e+000 2.000000e+002
      vertex   1.280000e+000 6.120000e+000 2.000000e+002
      vertex   -1.275000e+000 6.125000e+000 2.000000e+002
    endloop
  endfacet
  facet normal 0.000000e+000 0.000000e+000 1.000000e+000
    outer loop
      vertex   1.280000e+000 6.760000e+000 2.000000e+002
      vertex   1.275000e+000 6.125000e+000 2.000000e+002
      vertex   1.280000e+000 6.120000e+000 2.000000e+002
    endloop
  endfacet
  facet normal -1.918291e-016 1.139222e-031 -1.000000e+000
    outer loop
      vertex   -1.275000e+000 6.125000e+000 2.445821e-016
      vertex   -1.280000e+000 6.760000e+000 2.455413e-016
      vertex   -1.275000e+000 6.755000e+000 2.445821e-016
    endloop
  endfacet
  facet normal -1.918291e-016 7.020962e-032 -1.000000e+000
    outer loop
      vertex   -1.275000e+000 6.125000e+000 2.445821e-016
      vertex   -1.280000e+000 6.120000e+000 2.455413e-016
      vertex   -1.280000e+000 6.760000e+000 2.455413e-016
    endloop
  endfacet
  facet normal -1.918291e-016 0.000000e+000 -1.000000e+000
    outer loop
      vertex   -1.275000e+000 6.125000e+000 2.445821e-016
      vertex   1.275000e+000 6.125000e+000 -2.445821e-016
      vertex   -1.280000e+000 6.120000e+000 2.455413e-016
    endloop
  endfacet
  facet normal -1.918291e-016 -2.858802e-030 -1.000000e+000
    outer loop
      vertex   -1.280000e+000 6.120000e+000 2.455413e-016
      vertex   1.275000e+000 6.125000e+000 -2.445821e-016
      vertex   1.280000e+000 6.120000e+000 -2.455413e-016
    endloop
  endfacet
  facet normal -1.918291e-016 1.121422e-031 -1.000000e+000
    outer loop
      vertex   1.280000e+000 6.120000e+000 -2.455413e-016
      vertex   1.275000e+000 6.125000e+000 -2.445821e-016
      vertex   1.280000e+000 6.760000e+000 -2.455413e-016
    endloop
  endfacet
  facet normal -1.918291e-016 1.139220e-031 -1.000000e+000
    outer loop
      vertex   1.280000e+000 6.760000e+000 -2.455413e-016
      vertex   1.275000e+000 6.125000e+000 -2.445821e-016
      vertex   1.275000e+000 6.755000e+000 -2.445821e-016
    endloop
  endfacet
  facet normal -1.918291e-016 2.839803e-030 -1.000000e+000
    outer loop
      vertex   -1.275000e+000 6.755000e+000 2.445821e-016
      vertex   1.280000e+000 6.760000e+000 -2.455413e-016
      vertex   1.275000e+000 6.755000e+000 -2.445821e-016
    endloop
  endfacet
  facet normal -1.918291e-016 -5.506956e-030 -1.000000e+000
    outer loop
      vertex   -1.275000e+000 6.755000e+000 2.445821e-016
      vertex   -1.280000e+000 6.760000e+000 2.455413e-016
      vertex   1.280000e+000 6.760000e+000 -2.455413e-016
    endloop
  endfacet
endsolid
