solid ascii
  facet normal 1.000000e+000 -1.409807e-015 -1.920686e-016
    outer loop
      vertex   -1.275000e+000 9.650000e-001 2.000000e+002
      vertex   -1.275000e+000 9.650000e-001 2.445821e-016
      vertex   -1.275000e+000 1.595000e+000 2.000000e+002
    endloop
  endfacet
  facet normal 1.000000e+000 -1.409807e-015 -1.920686e-016
    outer loop
      vertex   -1.275000e+000 1.595000e+000 2.000000e+002
      vertex   -1.275000e+000 9.650000e-001 2.445821e-016
      vertex   -1.275000e+000 1.595000e+000 2.445821e-016
    endloop
  endfacet
  facet normal -1.915679e-015 -1.000000e+000 3.679417e-031
    outer loop
      vertex   -1.275000e+000 1.595000e+000 2.000000e+002
      vertex   -1.275000e+000 1.595000e+000 2.445821e-016
      vertex   1.275000e+000 1.595000e+000 2.000000e+002
    endloop
  endfacet
  facet normal -1.915679e-015 -1.000000e+000 3.650415e-031
    outer loop
      vertex   1.275000e+000 1.595000e+000 2.000000e+002
      vertex   -1.275000e+000 1.595000e+000 2.445821e-016
      vertex   1.275000e+000 1.595000e+000 -2.445821e-016
    endloop
  endfacet
  facet normal -1.000000e+000 1.409807e-015 1.920686e-016
    outer loop
      vertex   1.275000e+000 1.595000e+000 2.000000e+002
      vertex   1.275000e+000 1.595000e+000 -2.445821e-016
      vertex   1.275000e+000 9.650000e-001 2.000000e+002
    endloop
  endfacet
  facet normal -1.000000e+000 1.409807e-015 1.920686e-016
    outer loop
      vertex   1.275000e+000 9.650000e-001 2.000000e+002
      vertex   1.275000e+000 1.595000e+000 -2.445821e-016
      vertex   1.275000e+000 9.650000e-001 -2.445821e-016
    endloop
  endfacet
  facet normal 2.394599e-015 1.000000e+000 -4.599272e-031
    outer loop
      vertex   1.275000e+000 9.650000e-001 2.000000e+002
      vertex   1.275000e+000 9.650000e-001 -2.445821e-016
      vertex   -1.275000e+000 9.650000e-001 2.000000e+002
    endloop
  endfacet
  facet normal 2.394599e-015 1.000000e+000 -4.578487e-031
    outer loop
      vertex   -1.275000e+000 9.650000e-001 2.000000e+002
      vertex   1.275000e+000 9.650000e-001 -2.445821e-016
      vertex   -1.275000e+000 9.650000e-001 2.445821e-016
    endloop
  endfacet
  facet normal -1.000000e+000 2.775558e-015 1.920686e-016
    outer loop
      vertex   -1.280000e+000 1.600000e+000 2.000000e+002
      vertex   -1.280000e+000 1.600000e+000 2.455413e-016
      vertex   -1.280000e+000 9.600000e-001 2.000000e+002
    endloop
  endfacet
  facet normal -1.000000e+000 2.775558e-015 1.920686e-016
    outer loop
      vertex   -1.280000e+000 9.600000e-001 2.000000e+002
      vertex   -1.280000e+000 1.600000e+000 2.455413e-016
      vertex   -1.280000e+000 9.600000e-001 2.455413e-016
    endloop
  endfacet
  facet normal 2.081668e-015 1.000000e+000 -3.998231e-031
    outer loop
      vertex   1.280000e+000 1.600000e+000 2.000000e+002
      vertex   1.280000e+000 1.600000e+000 -2.455413e-016
      vertex   -1.280000e+000 1.600000e+000 2.000000e+002
    endloop
  endfacet
  facet normal 2.081668e-015 1.000000e+000 -4.036749e-031
    outer loop
      vertex   -1.280000e+000 1.600000e+000 2.000000e+002
      vertex   1.280000e+000 1.600000e+000 -2.455413e-016
      vertex   -1.280000e+000 1.600000e+000 2.455413e-016
    endloop
  endfacet
  facet normal 1.000000e+000 -1.387779e-015 -1.920686e-016
    outer loop
      vertex   1.280000e+000 9.600000e-001 2.000000e+002
      vertex   1.280000e+000 9.600000e-001 -2.455413e-016
      vertex   1.280000e+000 1.600000e+000 2.000000e+002
    endloop
  endfacet
  facet normal 1.000000e+000 -1.387779e-015 -1.920686e-016
    outer loop
      vertex   1.280000e+000 1.600000e+000 2.000000e+002
      vertex   1.280000e+000 9.600000e-001 -2.455413e-016
      vertex   1.280000e+000 1.600000e+000 -2.455413e-016
    endloop
  endfacet
  facet normal -2.298509e-015 -1.000000e+000 4.414713e-031
    outer loop
      vertex   -1.280000e+000 9.600000e-001 2.000000e+002
      vertex   -1.280000e+000 9.600000e-001 2.455413e-016
      vertex   1.280000e+000 9.600000e-001 2.000000e+002
    endloop
  endfacet
  facet normal -2.298509e-015 -1.000000e+000 4.437343e-031
    outer loop
      vertex   1.280000e+000 9.600000e-001 2.000000e+002
      vertex   -1.280000e+000 9.600000e-001 2.455413e-016
      vertex   1.280000e+000 9.600000e-001 -2.455413e-016
    endloop
  endfacet
  facet normal 0.000000e+000 0.000000e+000 1.000000e+000
    outer loop
      vertex   -1.275000e+000 1.595000e+000 2.000000e+002
      vertex   -1.280000e+000 1.600000e+000 2.000000e+002
      vertex   -1.275000e+000 9.650000e-001 2.000000e+002
    endloop
  endfacet
  facet normal -0.000000e+000 -0.000000e+000 1.000000e+000
    outer loop
      vertex   -1.275000e+000 1.595000e+000 2.000000e+002
      vertex   1.275000e+000 1.595000e+000 2.000000e+002
      vertex   -1.280000e+000 1.600000e+000 2.000000e+002
    endloop
  endfacet
  facet normal -0.000000e+000 0.000000e+000 1.000000e+000
    outer loop
      vertex   -1.280000e+000 1.600000e+000 2.000000e+002
      vertex   1.275000e+000 1.595000e+000 2.000000e+002
      vertex   1.280000e+000 1.600000e+000 2.000000e+002
    endloop
  endfacet
  facet normal 0.000000e+000 0.000000e+000 1.000000e+000
    outer loop
      vertex   1.280000e+000 1.600000e+000 2.000000e+002
      vertex   1.275000e+000 1.595000e+000 2.000000e+002
      vertex   1.275000e+000 9.650000e-001 2.000000e+002
    endloop
  endfacet
  facet normal 0.000000e+000 0.000000e+000 1.000000e+000
    outer loop
      vertex   1.280000e+000 9.600000e-001 2.000000e+002
      vertex   1.275000e+000 9.650000e-001 2.000000e+002
      vertex   -1.275000e+000 9.650000e-001 2.000000e+002
    endloop
  endfacet
  facet normal 0.000000e+000 -0.000000e+000 1.000000e+000
    outer loop
      vertex   -1.280000e+000 9.600000e-001 2.000000e+002
      vertex   -1.275000e+000 9.650000e-001 2.000000e+002
      vertex   -1.280000e+000 1.600000e+000 2.000000e+002
    endloop
  endfacet
  facet normal -0.000000e+000 -0.000000e+000 1.000000e+000
    outer loop
      vertex   -1.280000e+000 9.600000e-001 2.000000e+002
      vertex   1.280000e+000 9.600000e-001 2.000000e+002
      vertex   -1.275000e+000 9.650000e-001 2.000000e+002
    endloop
  endfacet
  facet normal 0.000000e+000 0.000000e+000 1.000000e+000
    outer loop
      vertex   1.280000e+000 1.600000e+000 2.000000e+002
      vertex   1.275000e+000 9.650000e-001 2.000000e+002
      vertex   1.280000e+000 9.600000e-001 2.000000e+002
    endloop
  endfacet
  facet normal -1.918291e-016 3.582459e-032 -1.000000e+000
    outer loop
      vertex   -1.275000e+000 9.650000e-001 2.445821e-016
      vertex   -1.280000e+000 1.600000e+000 2.455413e-016
      vertex   -1.275000e+000 1.595000e+000 2.445821e-016
    endloop
  endfacet
  facet normal -1.918291e-016 7.020962e-032 -1.000000e+000
    outer loop
      vertex   -1.275000e+000 9.650000e-001 2.445821e-016
      vertex   -1.280000e+000 9.600000e-001 2.455413e-016
      vertex   -1.280000e+000 1.600000e+000 2.455413e-016
    endloop
  endfacet
  facet normal -1.918291e-016 1.546786e-029 -1.000000e+000
    outer loop
      vertex   -1.275000e+000 9.650000e-001 2.445821e-016
      vertex   1.275000e+000 9.650000e-001 -2.445821e-016
      vertex   -1.280000e+000 9.600000e-001 2.455413e-016
    endloop
  endfacet
  facet normal -1.918291e-016 -2.858802e-030 -1.000000e+000
    outer loop
      vertex   -1.280000e+000 9.600000e-001 2.455413e-016
      vertex   1.275000e+000 9.650000e-001 -2.445821e-016
      vertex   1.280000e+000 9.600000e-001 -2.455413e-016
    endloop
  endfacet
  facet normal -1.918291e-016 3.526483e-032 -1.000000e+000
    outer loop
      vertex   1.280000e+000 9.600000e-001 -2.455413e-016
      vertex   1.275000e+000 9.650000e-001 -2.445821e-016
      vertex   1.280000e+000 1.600000e+000 -2.455413e-016
    endloop
  endfacet
  facet normal -1.918291e-016 3.566203e-032 -1.000000e+000
    outer loop
      vertex   1.280000e+000 1.600000e+000 -2.455413e-016
      vertex   1.275000e+000 9.650000e-001 -2.445821e-016
      vertex   1.275000e+000 1.595000e+000 -2.445821e-016
    endloop
  endfacet
  facet normal -1.918291e-016 2.900224e-030 -1.000000e+000
    outer loop
      vertex   -1.275000e+000 1.595000e+000 2.445821e-016
      vertex   1.280000e+000 1.600000e+000 -2.455413e-016
      vertex   1.275000e+000 1.595000e+000 -2.445821e-016
    endloop
  endfacet
  facet normal -1.918291e-016 4.333342e-030 -1.000000e+000
    outer loop
      vertex   -1.275000e+000 1.595000e+000 2.445821e-016
      vertex   -1.280000e+000 1.600000e+000 2.455413e-016
      vertex   1.280000e+000 1.600000e+000 -2.455413e-016
    endloop
  endfacet
endsolid
