solid ascii
  facet normal 1.000000e+000 -1.409807e-015 -1.909584e-016
    outer loop
      vertex   -6.435000e+000 9.650000e-001 2.000000e+002
      vertex   -6.435000e+000 9.650000e-001 1.234420e-015
      vertex   -6.435000e+000 1.595000e+000 2.000000e+002
    endloop
  endfacet
  facet normal 1.000000e+000 -1.409807e-015 -1.909584e-016
    outer loop
      vertex   -6.435000e+000 1.595000e+000 2.000000e+002
      vertex   -6.435000e+000 9.650000e-001 1.234420e-015
      vertex   -6.435000e+000 1.595000e+000 1.234420e-015
    endloop
  endfacet
  facet normal -2.002755e-015 -1.000000e+000 3.824429e-031
    outer loop
      vertex   -6.435000e+000 1.595000e+000 2.000000e+002
      vertex   -6.435000e+000 1.595000e+000 1.234420e-015
      vertex   -3.885000e+000 1.595000e+000 2.000000e+002
    endloop
  endfacet
  facet normal -2.002755e-015 -1.000000e+000 3.805094e-031
    outer loop
      vertex   -3.885000e+000 1.595000e+000 2.000000e+002
      vertex   -6.435000e+000 1.595000e+000 1.234420e-015
      vertex   -3.885000e+000 1.595000e+000 7.452562e-016
    endloop
  endfacet
  facet normal -1.000000e+000 1.409807e-015 1.909584e-016
    outer loop
      vertex   -3.885000e+000 1.595000e+000 2.000000e+002
      vertex   -3.885000e+000 1.595000e+000 7.452562e-016
      vertex   -3.885000e+000 9.650000e-001 2.000000e+002
    endloop
  endfacet
  facet normal -1.000000e+000 1.409807e-015 1.909584e-016
    outer loop
      vertex   -3.885000e+000 9.650000e-001 2.000000e+002
      vertex   -3.885000e+000 1.595000e+000 7.452562e-016
      vertex   -3.885000e+000 9.650000e-001 7.452562e-016
    endloop
  endfacet
  facet normal 2.394599e-015 1.000000e+000 -4.572686e-031
    outer loop
      vertex   -3.885000e+000 9.650000e-001 2.000000e+002
      vertex   -3.885000e+000 9.650000e-001 7.452562e-016
      vertex   -6.435000e+000 9.650000e-001 2.000000e+002
    endloop
  endfacet
  facet normal 2.394599e-015 1.000000e+000 -4.578487e-031
    outer loop
      vertex   -6.435000e+000 9.650000e-001 2.000000e+002
      vertex   -3.885000e+000 9.650000e-001 7.452562e-016
      vertex   -6.435000e+000 9.650000e-001 1.234420e-015
    endloop
  endfacet
  facet normal -1.000000e+000 2.775558e-015 1.909584e-016
    outer loop
      vertex   -6.440000e+000 1.600000e+000 2.000000e+002
      vertex   -6.440000e+000 1.600000e+000 1.235380e-015
      vertex   -6.440000e+000 9.600000e-001 2.000000e+002
    endloop
  endfacet
  facet normal -1.000000e+000 2.775558e-015 1.909584e-016
    outer loop
      vertex   -6.440000e+000 9.600000e-001 2.000000e+002
      vertex   -6.440000e+000 1.600000e+000 1.235380e-015
      vertex   -6.440000e+000 9.600000e-001 1.235380e-015
    endloop
  endfacet
  facet normal 2.255141e-015 1.000000e+000 -4.306379e-031
    outer loop
      vertex   -3.880000e+000 1.600000e+000 2.000000e+002
      vertex   -3.880000e+000 1.600000e+000 7.442970e-016
      vertex   -6.440000e+000 1.600000e+000 2.000000e+002
    endloop
  endfacet
  facet normal 2.255141e-015 1.000000e+000 -4.314083e-031
    outer loop
      vertex   -6.440000e+000 1.600000e+000 2.000000e+002
      vertex   -3.880000e+000 1.600000e+000 7.442970e-016
      vertex   -6.440000e+000 1.600000e+000 1.235380e-015
    endloop
  endfacet
  facet normal 1.000000e+000 -1.387779e-015 -1.909584e-016
    outer loop
      vertex   -3.880000e+000 9.600000e-001 2.000000e+002
      vertex   -3.880000e+000 9.600000e-001 7.442970e-016
      vertex   -3.880000e+000 1.600000e+000 2.000000e+002
    endloop
  endfacet
  facet normal 1.000000e+000 -1.387779e-015 -1.909584e-016
    outer loop
      vertex   -3.880000e+000 1.600000e+000 2.000000e+002
      vertex   -3.880000e+000 9.600000e-001 7.442970e-016
      vertex   -3.880000e+000 1.600000e+000 7.442970e-016
    endloop
  endfacet
  facet normal -2.298509e-015 -1.000000e+000 4.389194e-031
    outer loop
      vertex   -6.440000e+000 9.600000e-001 2.000000e+002
      vertex   -6.440000e+000 9.600000e-001 1.235380e-015
      vertex   -3.880000e+000 9.600000e-001 2.000000e+002
    endloop
  endfacet
  facet normal -2.298509e-015 -1.000000e+000 4.375713e-031
    outer loop
      vertex   -3.880000e+000 9.600000e-001 2.000000e+002
      vertex   -6.440000e+000 9.600000e-001 1.235380e-015
      vertex   -3.880000e+000 9.600000e-001 7.442970e-016
    endloop
  endfacet
  facet normal 0.000000e+000 0.000000e+000 1.000000e+000
    outer loop
      vertex   -6.435000e+000 1.595000e+000 2.000000e+002
      vertex   -6.440000e+000 1.600000e+000 2.000000e+002
      vertex   -6.435000e+000 9.650000e-001 2.000000e+002
    endloop
  endfacet
  facet normal -0.000000e+000 -0.000000e+000 1.000000e+000
    outer loop
      vertex   -6.435000e+000 1.595000e+000 2.000000e+002
      vertex   -3.885000e+000 1.595000e+000 2.000000e+002
      vertex   -6.440000e+000 1.600000e+000 2.000000e+002
    endloop
  endfacet
  facet normal -0.000000e+000 0.000000e+000 1.000000e+000
    outer loop
      vertex   -6.440000e+000 1.600000e+000 2.000000e+002
      vertex   -3.885000e+000 1.595000e+000 2.000000e+002
      vertex   -3.880000e+000 1.600000e+000 2.000000e+002
    endloop
  endfacet
  facet normal 0.000000e+000 0.000000e+000 1.000000e+000
    outer loop
      vertex   -3.880000e+000 1.600000e+000 2.000000e+002
      vertex   -3.885000e+000 1.595000e+000 2.000000e+002
      vertex   -3.885000e+000 9.650000e-001 2.000000e+002
    endloop
  endfacet
  facet normal 0.000000e+000 0.000000e+000 1.000000e+000
    outer loop
      vertex   -3.880000e+000 9.600000e-001 2.000000e+002
      vertex   -3.885000e+000 9.650000e-001 2.000000e+002
      vertex   -6.435000e+000 9.650000e-001 2.000000e+002
    endloop
  endfacet
  facet normal 0.000000e+000 -0.000000e+000 1.000000e+000
    outer loop
      vertex   -6.440000e+000 9.600000e-001 2.000000e+002
      vertex   -6.435000e+000 9.650000e-001 2.000000e+002
      vertex   -6.440000e+000 1.600000e+000 2.000000e+002
    endloop
  endfacet
  facet normal -0.000000e+000 -0.000000e+000 1.000000e+000
    outer loop
      vertex   -6.440000e+000 9.600000e-001 2.000000e+002
      vertex   -3.880000e+000 9.600000e-001 2.000000e+002
      vertex   -6.435000e+000 9.650000e-001 2.000000e+002
    endloop
  endfacet
  facet normal 0.000000e+000 0.000000e+000 1.000000e+000
    outer loop
      vertex   -3.880000e+000 1.600000e+000 2.000000e+002
      vertex   -3.885000e+000 9.650000e-001 2.000000e+002
      vertex   -3.880000e+000 9.600000e-001 2.000000e+002
    endloop
  endfacet
  facet normal -1.918291e-016 -4.275068e-032 -1.000000e+000
    outer loop
      vertex   -6.435000e+000 9.650000e-001 1.234420e-015
      vertex   -6.440000e+000 1.600000e+000 1.235380e-015
      vertex   -6.435000e+000 1.595000e+000 1.234420e-015
    endloop
  endfacet
  facet normal -1.918291e-016 -8.386477e-032 -1.000000e+000
    outer loop
      vertex   -6.435000e+000 9.650000e-001 1.234420e-015
      vertex   -6.440000e+000 9.600000e-001 1.235380e-015
      vertex   -6.440000e+000 1.600000e+000 1.235380e-015
    endloop
  endfacet
  facet normal -1.918291e-016 -3.093572e-029 -1.000000e+000
    outer loop
      vertex   -6.435000e+000 9.650000e-001 1.234420e-015
      vertex   -3.885000e+000 9.650000e-001 7.452562e-016
      vertex   -6.440000e+000 9.600000e-001 1.235380e-015
    endloop
  endfacet
  facet normal -1.918291e-016 -2.918988e-030 -1.000000e+000
    outer loop
      vertex   -6.440000e+000 9.600000e-001 1.235380e-015
      vertex   -3.885000e+000 9.650000e-001 7.452562e-016
      vertex   -3.880000e+000 9.600000e-001 7.442970e-016
    endloop
  endfacet
  facet normal -1.918291e-016 1.121422e-031 -1.000000e+000
    outer loop
      vertex   -3.880000e+000 9.600000e-001 7.442970e-016
      vertex   -3.885000e+000 9.650000e-001 7.452562e-016
      vertex   -3.880000e+000 1.600000e+000 7.442970e-016
    endloop
  endfacet
  facet normal -1.918291e-016 1.139220e-031 -1.000000e+000
    outer loop
      vertex   -3.880000e+000 1.600000e+000 7.442970e-016
      vertex   -3.885000e+000 9.650000e-001 7.452562e-016
      vertex   -3.885000e+000 1.595000e+000 7.452562e-016
    endloop
  endfacet
  facet normal -1.918291e-016 2.809592e-030 -1.000000e+000
    outer loop
      vertex   -6.435000e+000 1.595000e+000 1.234420e-015
      vertex   -3.880000e+000 1.600000e+000 7.442970e-016
      vertex   -3.885000e+000 1.595000e+000 7.452562e-016
    endloop
  endfacet
  facet normal -1.918291e-016 3.120608e-029 -1.000000e+000
    outer loop
      vertex   -6.435000e+000 1.595000e+000 1.234420e-015
      vertex   -6.440000e+000 1.600000e+000 1.235380e-015
      vertex   -3.880000e+000 1.600000e+000 7.442970e-016
    endloop
  endfacet
endsolid
