solid ascii
  facet normal 1.000000e+000 -0.000000e+000 0.000000e+000
    outer loop
      vertex   1.270000e+000 7.430000e+000 1.000000e+002
      vertex   1.270000e+000 7.430000e+000 0.000000e+000
      vertex   1.270000e+000 8.050000e+000 1.000000e+002
    endloop
  endfacet
  facet normal 1.000000e+000 -0.000000e+000 0.000000e+000
    outer loop
      vertex   1.270000e+000 8.050000e+000 1.000000e+002
      vertex   1.270000e+000 7.430000e+000 0.000000e+000
      vertex   1.270000e+000 8.050000e+000 0.000000e+000
    endloop
  endfacet
  facet normal 3.496765e-016 -1.000000e+000 0.000000e+000
    outer loop
      vertex   -1.270000e+000 7.430000e+000 1.000000e+002
      vertex   -1.270000e+000 7.430000e+000 0.000000e+000
      vertex   1.270000e+000 7.430000e+000 1.000000e+002
    endloop
  endfacet
  facet normal 3.496765e-016 -1.000000e+000 0.000000e+000
    outer loop
      vertex   1.270000e+000 7.430000e+000 1.000000e+002
      vertex   -1.270000e+000 7.430000e+000 0.000000e+000
      vertex   1.270000e+000 7.430000e+000 0.000000e+000
    endloop
  endfacet
  facet normal -1.000000e+000 -0.000000e+000 -0.000000e+000
    outer loop
      vertex   -1.270000e+000 8.050000e+000 1.000000e+002
      vertex   -1.270000e+000 8.050000e+000 0.000000e+000
      vertex   -1.270000e+000 7.430000e+000 1.000000e+002
    endloop
  endfacet
  facet normal -1.000000e+000 -0.000000e+000 -0.000000e+000
    outer loop
      vertex   -1.270000e+000 7.430000e+000 1.000000e+002
      vertex   -1.270000e+000 8.050000e+000 0.000000e+000
      vertex   -1.270000e+000 7.430000e+000 0.000000e+000
    endloop
  endfacet
  facet normal 0.000000e+000 1.000000e+000 0.000000e+000
    outer loop
      vertex   1.270000e+000 8.050000e+000 1.000000e+002
      vertex   1.270000e+000 8.050000e+000 0.000000e+000
      vertex   -1.270000e+000 8.050000e+000 1.000000e+002
    endloop
  endfacet
  facet normal 0.000000e+000 1.000000e+000 0.000000e+000
    outer loop
      vertex   -1.270000e+000 8.050000e+000 1.000000e+002
      vertex   1.270000e+000 8.050000e+000 0.000000e+000
      vertex   -1.270000e+000 8.050000e+000 0.000000e+000
    endloop
  endfacet
  facet normal 0.000000e+000 0.000000e+000 1.000000e+000
    outer loop
      vertex   1.270000e+000 8.050000e+000 1.000000e+002
      vertex   -1.270000e+000 8.050000e+000 1.000000e+002
      vertex   1.270000e+000 7.430000e+000 1.000000e+002
    endloop
  endfacet
  facet normal 0.000000e+000 0.000000e+000 1.000000e+000
    outer loop
      vertex   1.270000e+000 7.430000e+000 1.000000e+002
      vertex   -1.270000e+000 8.050000e+000 1.000000e+002
      vertex   -1.270000e+000 7.430000e+000 1.000000e+002
    endloop
  endfacet
  facet normal 0.000000e+000 -0.000000e+000 -1.000000e+000
    outer loop
      vertex   -1.270000e+000 8.050000e+000 0.000000e+000
      vertex   1.270000e+000 8.050000e+000 0.000000e+000
      vertex   -1.270000e+000 7.430000e+000 0.000000e+000
    endloop
  endfacet
  facet normal 0.000000e+000 0.000000e+000 -1.000000e+000
    outer loop
      vertex   -1.270000e+000 7.430000e+000 0.000000e+000
      vertex   1.270000e+000 8.050000e+000 0.000000e+000
      vertex   1.270000e+000 7.430000e+000 0.000000e+000
    endloop
  endfacet
endsolid
