solid ascii
  facet normal 1.000000e+000 -0.000000e+000 0.000000e+000
    outer loop
      vertex   -1.310000e+000 2.910000e+000 1.000000e+002
      vertex   -1.310000e+000 2.910000e+000 0.000000e+000
      vertex   -1.310000e+000 3.530000e+000 1.000000e+002
    endloop
  endfacet
  facet normal 1.000000e+000 -0.000000e+000 0.000000e+000
    outer loop
      vertex   -1.310000e+000 3.530000e+000 1.000000e+002
      vertex   -1.310000e+000 2.910000e+000 0.000000e+000
      vertex   -1.310000e+000 3.530000e+000 0.000000e+000
    endloop
  endfacet
  facet normal 1.748383e-016 -1.000000e+000 0.000000e+000
    outer loop
      vertex   -3.850000e+000 2.910000e+000 1.000000e+002
      vertex   -3.850000e+000 2.910000e+000 0.000000e+000
      vertex   -1.310000e+000 2.910000e+000 1.000000e+002
    endloop
  endfacet
  facet normal 1.748383e-016 -1.000000e+000 0.000000e+000
    outer loop
      vertex   -1.310000e+000 2.910000e+000 1.000000e+002
      vertex   -3.850000e+000 2.910000e+000 0.000000e+000
      vertex   -1.310000e+000 2.910000e+000 0.000000e+000
    endloop
  endfacet
  facet normal -1.000000e+000 -0.000000e+000 -0.000000e+000
    outer loop
      vertex   -3.850000e+000 3.530000e+000 1.000000e+002
      vertex   -3.850000e+000 3.530000e+000 0.000000e+000
      vertex   -3.850000e+000 2.910000e+000 1.000000e+002
    endloop
  endfacet
  facet normal -1.000000e+000 -0.000000e+000 -0.000000e+000
    outer loop
      vertex   -3.850000e+000 2.910000e+000 1.000000e+002
      vertex   -3.850000e+000 3.530000e+000 0.000000e+000
      vertex   -3.850000e+000 2.910000e+000 0.000000e+000
    endloop
  endfacet
  facet normal 0.000000e+000 1.000000e+000 0.000000e+000
    outer loop
      vertex   -1.310000e+000 3.530000e+000 1.000000e+002
      vertex   -1.310000e+000 3.530000e+000 0.000000e+000
      vertex   -3.850000e+000 3.530000e+000 1.000000e+002
    endloop
  endfacet
  facet normal 0.000000e+000 1.000000e+000 0.000000e+000
    outer loop
      vertex   -3.850000e+000 3.530000e+000 1.000000e+002
      vertex   -1.310000e+000 3.530000e+000 0.000000e+000
      vertex   -3.850000e+000 3.530000e+000 0.000000e+000
    endloop
  endfacet
  facet normal 0.000000e+000 0.000000e+000 1.000000e+000
    outer loop
      vertex   -1.310000e+000 3.530000e+000 1.000000e+002
      vertex   -3.850000e+000 3.530000e+000 1.000000e+002
      vertex   -1.310000e+000 2.910000e+000 1.000000e+002
    endloop
  endfacet
  facet normal 0.000000e+000 0.000000e+000 1.000000e+000
    outer loop
      vertex   -1.310000e+000 2.910000e+000 1.000000e+002
      vertex   -3.850000e+000 3.530000e+000 1.000000e+002
      vertex   -3.850000e+000 2.910000e+000 1.000000e+002
    endloop
  endfacet
  facet normal 0.000000e+000 -0.000000e+000 -1.000000e+000
    outer loop
      vertex   -3.850000e+000 3.530000e+000 0.000000e+000
      vertex   -1.310000e+000 3.530000e+000 0.000000e+000
      vertex   -3.850000e+000 2.910000e+000 0.000000e+000
    endloop
  endfacet
  facet normal 0.000000e+000 0.000000e+000 -1.000000e+000
    outer loop
      vertex   -3.850000e+000 2.910000e+000 0.000000e+000
      vertex   -1.310000e+000 3.530000e+000 0.000000e+000
      vertex   -1.310000e+000 2.910000e+000 0.000000e+000
    endloop
  endfacet
endsolid
