solid ascii
  facet normal 1.000000e+000 -0.000000e+000 0.000000e+000
    outer loop
      vertex   1.270000e+000 2.270000e+000 1.000000e+002
      vertex   1.270000e+000 2.270000e+000 0.000000e+000
      vertex   1.270000e+000 2.890000e+000 1.000000e+002
    endloop
  endfacet
  facet normal 1.000000e+000 -0.000000e+000 0.000000e+000
    outer loop
      vertex   1.270000e+000 2.890000e+000 1.000000e+002
      vertex   1.270000e+000 2.270000e+000 0.000000e+000
      vertex   1.270000e+000 2.890000e+000 0.000000e+000
    endloop
  endfacet
  facet normal 1.748383e-016 -1.000000e+000 0.000000e+000
    outer loop
      vertex   -1.270000e+000 2.270000e+000 1.000000e+002
      vertex   -1.270000e+000 2.270000e+000 0.000000e+000
      vertex   1.270000e+000 2.270000e+000 1.000000e+002
    endloop
  endfacet
  facet normal 1.748383e-016 -1.000000e+000 0.000000e+000
    outer loop
      vertex   1.270000e+000 2.270000e+000 1.000000e+002
      vertex   -1.270000e+000 2.270000e+000 0.000000e+000
      vertex   1.270000e+000 2.270000e+000 0.000000e+000
    endloop
  endfacet
  facet normal -1.000000e+000 -0.000000e+000 -0.000000e+000
    outer loop
      vertex   -1.270000e+000 2.890000e+000 1.000000e+002
      vertex   -1.270000e+000 2.890000e+000 0.000000e+000
      vertex   -1.270000e+000 2.270000e+000 1.000000e+002
    endloop
  endfacet
  facet normal -1.000000e+000 -0.000000e+000 -0.000000e+000
    outer loop
      vertex   -1.270000e+000 2.270000e+000 1.000000e+002
      vertex   -1.270000e+000 2.890000e+000 0.000000e+000
      vertex   -1.270000e+000 2.270000e+000 0.000000e+000
    endloop
  endfacet
  facet normal 0.000000e+000 1.000000e+000 0.000000e+000
    outer loop
      vertex   1.270000e+000 2.890000e+000 1.000000e+002
      vertex   1.270000e+000 2.890000e+000 0.000000e+000
      vertex   -1.270000e+000 2.890000e+000 1.000000e+002
    endloop
  endfacet
  facet normal 0.000000e+000 1.000000e+000 0.000000e+000
    outer loop
      vertex   -1.270000e+000 2.890000e+000 1.000000e+002
      vertex   1.270000e+000 2.890000e+000 0.000000e+000
      vertex   -1.270000e+000 2.890000e+000 0.000000e+000
    endloop
  endfacet
  facet normal 0.000000e+000 0.000000e+000 1.000000e+000
    outer loop
      vertex   1.270000e+000 2.890000e+000 1.000000e+002
      vertex   -1.270000e+000 2.890000e+000 1.000000e+002
      vertex   1.270000e+000 2.270000e+000 1.000000e+002
    endloop
  endfacet
  facet normal 0.000000e+000 0.000000e+000 1.000000e+000
    outer loop
      vertex   1.270000e+000 2.270000e+000 1.000000e+002
      vertex   -1.270000e+000 2.890000e+000 1.000000e+002
      vertex   -1.270000e+000 2.270000e+000 1.000000e+002
    endloop
  endfacet
  facet normal 0.000000e+000 -0.000000e+000 -1.000000e+000
    outer loop
      vertex   -1.270000e+000 2.890000e+000 0.000000e+000
      vertex   1.270000e+000 2.890000e+000 0.000000e+000
      vertex   -1.270000e+000 2.270000e+000 0.000000e+000
    endloop
  endfacet
  facet normal 0.000000e+000 0.000000e+000 -1.000000e+000
    outer loop
      vertex   -1.270000e+000 2.270000e+000 0.000000e+000
      vertex   1.270000e+000 2.890000e+000 0.000000e+000
      vertex   1.270000e+000 2.270000e+000 0.000000e+000
    endloop
  endfacet
endsolid
