solid ascii
  facet normal 1.000000e+000 -1.409807e-015 -1.909584e-016
    outer loop
      vertex   -3.855000e+000 8.705000e+000 1.000000e+002
      vertex   -3.855000e+000 8.705000e+000 7.395013e-016
      vertex   -3.855000e+000 9.335000e+000 1.000000e+002
    endloop
  endfacet
  facet normal 1.000000e+000 -1.409807e-015 -1.909584e-016
    outer loop
      vertex   -3.855000e+000 9.335000e+000 1.000000e+002
      vertex   -3.855000e+000 8.705000e+000 7.395013e-016
      vertex   -3.855000e+000 9.335000e+000 7.395013e-016
    endloop
  endfacet
  facet normal -2.089832e-015 -1.000000e+000 3.990708e-031
    outer loop
      vertex   -3.855000e+000 9.335000e+000 1.000000e+002
      vertex   -3.855000e+000 9.335000e+000 7.395013e-016
      vertex   -1.305000e+000 9.335000e+000 1.000000e+002
    endloop
  endfacet
  facet normal -2.089832e-015 -1.000000e+000 4.021644e-031
    outer loop
      vertex   -1.305000e+000 9.335000e+000 1.000000e+002
      vertex   -3.855000e+000 9.335000e+000 7.395013e-016
      vertex   -1.305000e+000 9.335000e+000 2.503370e-016
    endloop
  endfacet
  facet normal -1.000000e+000 1.409807e-015 1.909584e-016
    outer loop
      vertex   -1.305000e+000 9.335000e+000 1.000000e+002
      vertex   -1.305000e+000 9.335000e+000 2.503370e-016
      vertex   -1.305000e+000 8.705000e+000 1.000000e+002
    endloop
  endfacet
  facet normal -1.000000e+000 1.409807e-015 1.909584e-016
    outer loop
      vertex   -1.305000e+000 8.705000e+000 1.000000e+002
      vertex   -1.305000e+000 9.335000e+000 2.503370e-016
      vertex   -1.305000e+000 8.705000e+000 2.503370e-016
    endloop
  endfacet
  facet normal 2.089832e-015 1.000000e+000 -3.990708e-031
    outer loop
      vertex   -1.305000e+000 8.705000e+000 1.000000e+002
      vertex   -1.305000e+000 8.705000e+000 2.503370e-016
      vertex   -3.855000e+000 8.705000e+000 1.000000e+002
    endloop
  endfacet
  facet normal 2.089832e-015 1.000000e+000 -4.021644e-031
    outer loop
      vertex   -3.855000e+000 8.705000e+000 1.000000e+002
      vertex   -1.305000e+000 8.705000e+000 2.503370e-016
      vertex   -3.855000e+000 8.705000e+000 7.395013e-016
    endloop
  endfacet
  facet normal -1.000000e+000 2.775558e-015 1.909584e-016
    outer loop
      vertex   -3.860000e+000 9.340000e+000 1.000000e+002
      vertex   -3.860000e+000 9.340000e+000 7.404605e-016
      vertex   -3.860000e+000 8.700000e+000 1.000000e+002
    endloop
  endfacet
  facet normal -1.000000e+000 2.775558e-015 1.909584e-016
    outer loop
      vertex   -3.860000e+000 8.700000e+000 1.000000e+002
      vertex   -3.860000e+000 9.340000e+000 7.404605e-016
      vertex   -3.860000e+000 8.700000e+000 7.404605e-016
    endloop
  endfacet
  facet normal 2.081668e-015 1.000000e+000 -3.975119e-031
    outer loop
      vertex   -1.300000e+000 9.340000e+000 1.000000e+002
      vertex   -1.300000e+000 9.340000e+000 2.493779e-016
      vertex   -3.860000e+000 9.340000e+000 1.000000e+002
    endloop
  endfacet
  facet normal 2.081668e-015 1.000000e+000 -4.005934e-031
    outer loop
      vertex   -3.860000e+000 9.340000e+000 1.000000e+002
      vertex   -1.300000e+000 9.340000e+000 2.493779e-016
      vertex   -3.860000e+000 9.340000e+000 7.404605e-016
    endloop
  endfacet
  facet normal 1.000000e+000 -1.387779e-015 -1.909584e-016
    outer loop
      vertex   -1.300000e+000 8.700000e+000 1.000000e+002
      vertex   -1.300000e+000 8.700000e+000 2.493779e-016
      vertex   -1.300000e+000 9.340000e+000 1.000000e+002
    endloop
  endfacet
  facet normal 1.000000e+000 -1.387779e-015 -1.909584e-016
    outer loop
      vertex   -1.300000e+000 9.340000e+000 1.000000e+002
      vertex   -1.300000e+000 8.700000e+000 2.493779e-016
      vertex   -1.300000e+000 9.340000e+000 2.493779e-016
    endloop
  endfacet
  facet normal -2.775558e-015 -1.000000e+000 5.300159e-031
    outer loop
      vertex   -3.860000e+000 8.700000e+000 1.000000e+002
      vertex   -3.860000e+000 8.700000e+000 7.404605e-016
      vertex   -1.300000e+000 8.700000e+000 1.000000e+002
    endloop
  endfacet
  facet normal -2.775558e-015 -1.000000e+000 5.300159e-031
    outer loop
      vertex   -1.300000e+000 8.700000e+000 1.000000e+002
      vertex   -3.860000e+000 8.700000e+000 7.404605e-016
      vertex   -1.300000e+000 8.700000e+000 2.493779e-016
    endloop
  endfacet
  facet normal 0.000000e+000 0.000000e+000 1.000000e+000
    outer loop
      vertex   -3.855000e+000 9.335000e+000 1.000000e+002
      vertex   -3.860000e+000 9.340000e+000 1.000000e+002
      vertex   -3.855000e+000 8.705000e+000 1.000000e+002
    endloop
  endfacet
  facet normal -0.000000e+000 -0.000000e+000 1.000000e+000
    outer loop
      vertex   -3.855000e+000 9.335000e+000 1.000000e+002
      vertex   -1.305000e+000 9.335000e+000 1.000000e+002
      vertex   -3.860000e+000 9.340000e+000 1.000000e+002
    endloop
  endfacet
  facet normal -0.000000e+000 0.000000e+000 1.000000e+000
    outer loop
      vertex   -3.860000e+000 9.340000e+000 1.000000e+002
      vertex   -1.305000e+000 9.335000e+000 1.000000e+002
      vertex   -1.300000e+000 9.340000e+000 1.000000e+002
    endloop
  endfacet
  facet normal 0.000000e+000 0.000000e+000 1.000000e+000
    outer loop
      vertex   -1.300000e+000 9.340000e+000 1.000000e+002
      vertex   -1.305000e+000 9.335000e+000 1.000000e+002
      vertex   -1.305000e+000 8.705000e+000 1.000000e+002
    endloop
  endfacet
  facet normal 0.000000e+000 0.000000e+000 1.000000e+000
    outer loop
      vertex   -1.300000e+000 8.700000e+000 1.000000e+002
      vertex   -1.305000e+000 8.705000e+000 1.000000e+002
      vertex   -3.855000e+000 8.705000e+000 1.000000e+002
    endloop
  endfacet
  facet normal 0.000000e+000 -0.000000e+000 1.000000e+000
    outer loop
      vertex   -3.860000e+000 8.700000e+000 1.000000e+002
      vertex   -3.855000e+000 8.705000e+000 1.000000e+002
      vertex   -3.860000e+000 9.340000e+000 1.000000e+002
    endloop
  endfacet
  facet normal -0.000000e+000 -0.000000e+000 1.000000e+000
    outer loop
      vertex   -3.860000e+000 8.700000e+000 1.000000e+002
      vertex   -1.300000e+000 8.700000e+000 1.000000e+002
      vertex   -3.855000e+000 8.705000e+000 1.000000e+002
    endloop
  endfacet
  facet normal 0.000000e+000 0.000000e+000 1.000000e+000
    outer loop
      vertex   -1.300000e+000 9.340000e+000 1.000000e+002
      vertex   -1.305000e+000 8.705000e+000 1.000000e+002
      vertex   -1.300000e+000 8.700000e+000 1.000000e+002
    endloop
  endfacet
  facet normal -1.918291e-016 1.139222e-031 -1.000000e+000
    outer loop
      vertex   -3.855000e+000 8.705000e+000 7.395013e-016
      vertex   -3.860000e+000 9.340000e+000 7.404605e-016
      vertex   -3.855000e+000 9.335000e+000 7.395013e-016
    endloop
  endfacet
  facet normal -1.918291e-016 7.020962e-032 -1.000000e+000
    outer loop
      vertex   -3.855000e+000 8.705000e+000 7.395013e-016
      vertex   -3.860000e+000 8.700000e+000 7.404605e-016
      vertex   -3.860000e+000 9.340000e+000 7.404605e-016
    endloop
  endfacet
  facet normal -1.918291e-016 0.000000e+000 -1.000000e+000
    outer loop
      vertex   -3.855000e+000 8.705000e+000 7.395013e-016
      vertex   -1.305000e+000 8.705000e+000 2.503370e-016
      vertex   -3.860000e+000 8.700000e+000 7.404605e-016
    endloop
  endfacet
  facet normal -1.918291e-016 -2.708339e-030 -1.000000e+000
    outer loop
      vertex   -3.860000e+000 8.700000e+000 7.404605e-016
      vertex   -1.305000e+000 8.705000e+000 2.503370e-016
      vertex   -1.300000e+000 8.700000e+000 2.493779e-016
    endloop
  endfacet
  facet normal -1.918291e-016 3.526483e-032 -1.000000e+000
    outer loop
      vertex   -1.300000e+000 8.700000e+000 2.493779e-016
      vertex   -1.305000e+000 8.705000e+000 2.503370e-016
      vertex   -1.300000e+000 9.340000e+000 2.493779e-016
    endloop
  endfacet
  facet normal -1.918291e-016 1.139220e-031 -1.000000e+000
    outer loop
      vertex   -1.300000e+000 9.340000e+000 2.493779e-016
      vertex   -1.305000e+000 8.705000e+000 2.503370e-016
      vertex   -1.305000e+000 9.335000e+000 2.503370e-016
    endloop
  endfacet
  facet normal -1.918291e-016 -7.129717e-030 -1.000000e+000
    outer loop
      vertex   -3.855000e+000 9.335000e+000 7.395013e-016
      vertex   -1.300000e+000 9.340000e+000 2.493779e-016
      vertex   -1.305000e+000 9.335000e+000 2.503370e-016
    endloop
  endfacet
  facet normal -1.918291e-016 -5.356493e-030 -1.000000e+000
    outer loop
      vertex   -3.855000e+000 9.335000e+000 7.395013e-016
      vertex   -3.860000e+000 9.340000e+000 7.404605e-016
      vertex   -1.300000e+000 9.340000e+000 2.493779e-016
    endloop
  endfacet
endsolid
