solid ascii
  facet normal 1.000000e+000 -2.819614e-015 -1.865175e-016
    outer loop
      vertex   -6.435000e+000 2.905000e+000 1.000000e+002
      vertex   -6.435000e+000 2.905000e+000 1.234420e-015
      vertex   -6.435000e+000 3.535000e+000 1.000000e+002
    endloop
  endfacet
  facet normal 1.000000e+000 -1.409807e-015 -1.953993e-016
    outer loop
      vertex   -6.435000e+000 3.535000e+000 1.000000e+002
      vertex   -6.435000e+000 2.905000e+000 1.234420e-015
      vertex   -6.435000e+000 3.535000e+000 1.234420e-015
    endloop
  endfacet
  facet normal -1.915679e-015 -1.000000e+000 3.743222e-031
    outer loop
      vertex   -6.435000e+000 3.535000e+000 1.000000e+002
      vertex   -6.435000e+000 3.535000e+000 1.234420e-015
      vertex   -3.885000e+000 3.535000e+000 1.000000e+002
    endloop
  endfacet
  facet normal -1.915679e-015 -1.000000e+000 3.650415e-031
    outer loop
      vertex   -3.885000e+000 3.535000e+000 1.000000e+002
      vertex   -6.435000e+000 3.535000e+000 1.234420e-015
      vertex   -3.885000e+000 3.535000e+000 7.452562e-016
    endloop
  endfacet
  facet normal -1.000000e+000 1.409807e-015 1.909584e-016
    outer loop
      vertex   -3.885000e+000 3.535000e+000 1.000000e+002
      vertex   -3.885000e+000 3.535000e+000 7.452562e-016
      vertex   -3.885000e+000 2.905000e+000 1.000000e+002
    endloop
  endfacet
  facet normal -1.000000e+000 1.409807e-015 1.909584e-016
    outer loop
      vertex   -3.885000e+000 2.905000e+000 1.000000e+002
      vertex   -3.885000e+000 3.535000e+000 7.452562e-016
      vertex   -3.885000e+000 2.905000e+000 7.452562e-016
    endloop
  endfacet
  facet normal 2.263984e-015 1.000000e+000 -4.323267e-031
    outer loop
      vertex   -3.885000e+000 2.905000e+000 1.000000e+002
      vertex   -3.885000e+000 2.905000e+000 7.452562e-016
      vertex   -6.435000e+000 2.905000e+000 1.000000e+002
    endloop
  endfacet
  facet normal 2.263984e-015 1.000000e+000 -4.207258e-031
    outer loop
      vertex   -6.435000e+000 2.905000e+000 1.000000e+002
      vertex   -3.885000e+000 2.905000e+000 7.452562e-016
      vertex   -6.435000e+000 2.905000e+000 1.234420e-015
    endloop
  endfacet
  facet normal -1.000000e+000 2.775558e-015 1.865175e-016
    outer loop
      vertex   -6.440000e+000 3.540000e+000 1.000000e+002
      vertex   -6.440000e+000 3.540000e+000 1.235380e-015
      vertex   -6.440000e+000 2.900000e+000 1.000000e+002
    endloop
  endfacet
  facet normal -1.000000e+000 2.775558e-015 1.865175e-016
    outer loop
      vertex   -6.440000e+000 2.900000e+000 1.000000e+002
      vertex   -6.440000e+000 3.540000e+000 1.235380e-015
      vertex   -6.440000e+000 2.900000e+000 1.235380e-015
    endloop
  endfacet
  facet normal 2.081668e-015 1.000000e+000 -3.975119e-031
    outer loop
      vertex   -3.880000e+000 3.540000e+000 1.000000e+002
      vertex   -3.880000e+000 3.540000e+000 7.442970e-016
      vertex   -6.440000e+000 3.540000e+000 1.000000e+002
    endloop
  endfacet
  facet normal 2.081668e-015 1.000000e+000 -3.882675e-031
    outer loop
      vertex   -6.440000e+000 3.540000e+000 1.000000e+002
      vertex   -3.880000e+000 3.540000e+000 7.442970e-016
      vertex   -6.440000e+000 3.540000e+000 1.235380e-015
    endloop
  endfacet
  facet normal 1.000000e+000 -1.387779e-015 -1.909584e-016
    outer loop
      vertex   -3.880000e+000 2.900000e+000 1.000000e+002
      vertex   -3.880000e+000 2.900000e+000 7.442970e-016
      vertex   -3.880000e+000 3.540000e+000 1.000000e+002
    endloop
  endfacet
  facet normal 1.000000e+000 -1.387779e-015 -1.909584e-016
    outer loop
      vertex   -3.880000e+000 3.540000e+000 1.000000e+002
      vertex   -3.880000e+000 2.900000e+000 7.442970e-016
      vertex   -3.880000e+000 3.540000e+000 7.442970e-016
    endloop
  endfacet
  facet normal -2.255141e-015 -1.000000e+000 4.206231e-031
    outer loop
      vertex   -6.440000e+000 2.900000e+000 1.000000e+002
      vertex   -6.440000e+000 2.900000e+000 1.235380e-015
      vertex   -3.880000e+000 2.900000e+000 1.000000e+002
    endloop
  endfacet
  facet normal -2.255141e-015 -1.000000e+000 4.314083e-031
    outer loop
      vertex   -3.880000e+000 2.900000e+000 1.000000e+002
      vertex   -6.440000e+000 2.900000e+000 1.235380e-015
      vertex   -3.880000e+000 2.900000e+000 7.442970e-016
    endloop
  endfacet
  facet normal 0.000000e+000 0.000000e+000 1.000000e+000
    outer loop
      vertex   -6.435000e+000 3.535000e+000 1.000000e+002
      vertex   -6.440000e+000 3.540000e+000 1.000000e+002
      vertex   -6.435000e+000 2.905000e+000 1.000000e+002
    endloop
  endfacet
  facet normal -0.000000e+000 -0.000000e+000 1.000000e+000
    outer loop
      vertex   -6.435000e+000 3.535000e+000 1.000000e+002
      vertex   -3.885000e+000 3.535000e+000 1.000000e+002
      vertex   -6.440000e+000 3.540000e+000 1.000000e+002
    endloop
  endfacet
  facet normal -0.000000e+000 0.000000e+000 1.000000e+000
    outer loop
      vertex   -6.440000e+000 3.540000e+000 1.000000e+002
      vertex   -3.885000e+000 3.535000e+000 1.000000e+002
      vertex   -3.880000e+000 3.540000e+000 1.000000e+002
    endloop
  endfacet
  facet normal 0.000000e+000 0.000000e+000 1.000000e+000
    outer loop
      vertex   -3.880000e+000 3.540000e+000 1.000000e+002
      vertex   -3.885000e+000 3.535000e+000 1.000000e+002
      vertex   -3.885000e+000 2.905000e+000 1.000000e+002
    endloop
  endfacet
  facet normal 0.000000e+000 0.000000e+000 1.000000e+000
    outer loop
      vertex   -3.880000e+000 2.900000e+000 1.000000e+002
      vertex   -3.885000e+000 2.905000e+000 1.000000e+002
      vertex   -6.435000e+000 2.905000e+000 1.000000e+002
    endloop
  endfacet
  facet normal 0.000000e+000 -0.000000e+000 1.000000e+000
    outer loop
      vertex   -6.440000e+000 2.900000e+000 1.000000e+002
      vertex   -6.435000e+000 2.905000e+000 1.000000e+002
      vertex   -6.440000e+000 3.540000e+000 1.000000e+002
    endloop
  endfacet
  facet normal -0.000000e+000 -0.000000e+000 1.000000e+000
    outer loop
      vertex   -6.440000e+000 2.900000e+000 1.000000e+002
      vertex   -3.880000e+000 2.900000e+000 1.000000e+002
      vertex   -6.435000e+000 2.905000e+000 1.000000e+002
    endloop
  endfacet
  facet normal 0.000000e+000 0.000000e+000 1.000000e+000
    outer loop
      vertex   -3.880000e+000 3.540000e+000 1.000000e+002
      vertex   -3.885000e+000 2.905000e+000 1.000000e+002
      vertex   -3.880000e+000 2.900000e+000 1.000000e+002
    endloop
  endfacet
  facet normal -1.918291e-016 2.703562e-031 -1.000000e+000
    outer loop
      vertex   -6.435000e+000 2.905000e+000 1.234420e-015
      vertex   -6.440000e+000 3.540000e+000 1.235380e-015
      vertex   -6.435000e+000 3.535000e+000 1.234420e-015
    endloop
  endfacet
  facet normal -1.918291e-016 -8.386477e-032 -1.000000e+000
    outer loop
      vertex   -6.435000e+000 2.905000e+000 1.234420e-015
      vertex   -6.440000e+000 2.900000e+000 1.235380e-015
      vertex   -6.440000e+000 3.540000e+000 1.235380e-015
    endloop
  endfacet
  facet normal -1.918291e-016 -4.640358e-029 -1.000000e+000
    outer loop
      vertex   -6.435000e+000 2.905000e+000 1.234420e-015
      vertex   -3.885000e+000 2.905000e+000 7.452562e-016
      vertex   -6.440000e+000 2.900000e+000 1.235380e-015
    endloop
  endfacet
  facet normal -1.918291e-016 -2.768524e-030 -1.000000e+000
    outer loop
      vertex   -6.440000e+000 2.900000e+000 1.235380e-015
      vertex   -3.885000e+000 2.905000e+000 7.452562e-016
      vertex   -3.880000e+000 2.900000e+000 7.442970e-016
    endloop
  endfacet
  facet normal -1.918291e-016 1.121422e-031 -1.000000e+000
    outer loop
      vertex   -3.880000e+000 2.900000e+000 7.442970e-016
      vertex   -3.885000e+000 2.905000e+000 7.452562e-016
      vertex   -3.880000e+000 3.540000e+000 7.442970e-016
    endloop
  endfacet
  facet normal -1.918291e-016 1.139220e-031 -1.000000e+000
    outer loop
      vertex   -3.880000e+000 3.540000e+000 7.442970e-016
      vertex   -3.885000e+000 2.905000e+000 7.452562e-016
      vertex   -3.885000e+000 3.535000e+000 7.452562e-016
    endloop
  endfacet
  facet normal -1.918291e-016 2.749171e-030 -1.000000e+000
    outer loop
      vertex   -6.435000e+000 3.535000e+000 1.234420e-015
      vertex   -3.880000e+000 3.540000e+000 7.442970e-016
      vertex   -3.885000e+000 3.535000e+000 7.452562e-016
    endloop
  endfacet
  facet normal -1.918291e-016 -8.094924e-030 -1.000000e+000
    outer loop
      vertex   -6.435000e+000 3.535000e+000 1.234420e-015
      vertex   -6.440000e+000 3.540000e+000 1.235380e-015
      vertex   -3.880000e+000 3.540000e+000 7.442970e-016
    endloop
  endfacet
endsolid
