solid ascii
  facet normal 1.000000e+000 0.000000e+000 -1.953993e-016
    outer loop
      vertex   -6.435000e+000 -3.150000e-001 1.000000e+002
      vertex   -6.435000e+000 -3.150000e-001 1.234420e-015
      vertex   -6.435000e+000 3.150000e-001 1.000000e+002
    endloop
  endfacet
  facet normal 1.000000e+000 -1.409807e-015 -1.865175e-016
    outer loop
      vertex   -6.435000e+000 3.150000e-001 1.000000e+002
      vertex   -6.435000e+000 -3.150000e-001 1.234420e-015
      vertex   -6.435000e+000 3.150000e-001 1.234420e-015
    endloop
  endfacet
  facet normal -1.980986e-015 -1.000000e+000 3.694885e-031
    outer loop
      vertex   -6.435000e+000 3.150000e-001 1.000000e+002
      vertex   -6.435000e+000 3.150000e-001 1.234420e-015
      vertex   -3.885000e+000 3.150000e-001 1.000000e+002
    endloop
  endfacet
  facet normal -1.980986e-015 -1.000000e+000 3.774158e-031
    outer loop
      vertex   -3.885000e+000 3.150000e-001 1.000000e+002
      vertex   -6.435000e+000 3.150000e-001 1.234420e-015
      vertex   -3.885000e+000 3.150000e-001 7.452562e-016
    endloop
  endfacet
  facet normal -1.000000e+000 1.409807e-015 1.909584e-016
    outer loop
      vertex   -3.885000e+000 3.150000e-001 1.000000e+002
      vertex   -3.885000e+000 3.150000e-001 7.452562e-016
      vertex   -3.885000e+000 -3.150000e-001 1.000000e+002
    endloop
  endfacet
  facet normal -1.000000e+000 1.409807e-015 1.909584e-016
    outer loop
      vertex   -3.885000e+000 -3.150000e-001 1.000000e+002
      vertex   -3.885000e+000 3.150000e-001 7.452562e-016
      vertex   -3.885000e+000 -3.150000e-001 7.452562e-016
    endloop
  endfacet
  facet normal 2.372830e-015 1.000000e+000 -4.531116e-031
    outer loop
      vertex   -3.885000e+000 -3.150000e-001 1.000000e+002
      vertex   -3.885000e+000 -3.150000e-001 7.452562e-016
      vertex   -6.435000e+000 -3.150000e-001 1.000000e+002
    endloop
  endfacet
  facet normal 2.372830e-015 1.000000e+000 -4.702230e-031
    outer loop
      vertex   -6.435000e+000 -3.150000e-001 1.000000e+002
      vertex   -3.885000e+000 -3.150000e-001 7.452562e-016
      vertex   -6.435000e+000 -3.150000e-001 1.234420e-015
    endloop
  endfacet
  facet normal -1.000000e+000 2.775558e-015 1.953993e-016
    outer loop
      vertex   -6.440000e+000 3.200000e-001 1.000000e+002
      vertex   -6.440000e+000 3.200000e-001 1.235380e-015
      vertex   -6.440000e+000 -3.200000e-001 1.000000e+002
    endloop
  endfacet
  facet normal -1.000000e+000 2.775558e-015 1.953993e-016
    outer loop
      vertex   -6.440000e+000 -3.200000e-001 1.000000e+002
      vertex   -6.440000e+000 3.200000e-001 1.235380e-015
      vertex   -6.440000e+000 -3.200000e-001 1.235380e-015
    endloop
  endfacet
  facet normal 2.168404e-015 1.000000e+000 -4.140749e-031
    outer loop
      vertex   -3.880000e+000 3.200000e-001 1.000000e+002
      vertex   -3.880000e+000 3.200000e-001 7.442970e-016
      vertex   -6.440000e+000 3.200000e-001 1.000000e+002
    endloop
  endfacet
  facet normal 2.168404e-015 1.000000e+000 -4.252453e-031
    outer loop
      vertex   -6.440000e+000 3.200000e-001 1.000000e+002
      vertex   -3.880000e+000 3.200000e-001 7.442970e-016
      vertex   -6.440000e+000 3.200000e-001 1.235380e-015
    endloop
  endfacet
  facet normal 1.000000e+000 -1.387779e-015 -1.909584e-016
    outer loop
      vertex   -3.880000e+000 -3.200000e-001 1.000000e+002
      vertex   -3.880000e+000 -3.200000e-001 7.442970e-016
      vertex   -3.880000e+000 3.200000e-001 1.000000e+002
    endloop
  endfacet
  facet normal 1.000000e+000 -1.387779e-015 -1.909584e-016
    outer loop
      vertex   -3.880000e+000 3.200000e-001 1.000000e+002
      vertex   -3.880000e+000 -3.200000e-001 7.442970e-016
      vertex   -3.880000e+000 3.200000e-001 7.442970e-016
    endloop
  endfacet
  facet normal -2.276825e-015 -1.000000e+000 4.448898e-031
    outer loop
      vertex   -6.440000e+000 -3.200000e-001 1.000000e+002
      vertex   -6.440000e+000 -3.200000e-001 1.235380e-015
      vertex   -3.880000e+000 -3.200000e-001 1.000000e+002
    endloop
  endfacet
  facet normal -2.276825e-015 -1.000000e+000 4.314083e-031
    outer loop
      vertex   -3.880000e+000 -3.200000e-001 1.000000e+002
      vertex   -6.440000e+000 -3.200000e-001 1.235380e-015
      vertex   -3.880000e+000 -3.200000e-001 7.442970e-016
    endloop
  endfacet
  facet normal 0.000000e+000 0.000000e+000 1.000000e+000
    outer loop
      vertex   -6.435000e+000 3.150000e-001 1.000000e+002
      vertex   -6.440000e+000 3.200000e-001 1.000000e+002
      vertex   -6.435000e+000 -3.150000e-001 1.000000e+002
    endloop
  endfacet
  facet normal -0.000000e+000 -0.000000e+000 1.000000e+000
    outer loop
      vertex   -6.435000e+000 3.150000e-001 1.000000e+002
      vertex   -3.885000e+000 3.150000e-001 1.000000e+002
      vertex   -6.440000e+000 3.200000e-001 1.000000e+002
    endloop
  endfacet
  facet normal -0.000000e+000 0.000000e+000 1.000000e+000
    outer loop
      vertex   -6.440000e+000 3.200000e-001 1.000000e+002
      vertex   -3.885000e+000 3.150000e-001 1.000000e+002
      vertex   -3.880000e+000 3.200000e-001 1.000000e+002
    endloop
  endfacet
  facet normal 0.000000e+000 0.000000e+000 1.000000e+000
    outer loop
      vertex   -3.880000e+000 3.200000e-001 1.000000e+002
      vertex   -3.885000e+000 3.150000e-001 1.000000e+002
      vertex   -3.885000e+000 -3.150000e-001 1.000000e+002
    endloop
  endfacet
  facet normal 0.000000e+000 0.000000e+000 1.000000e+000
    outer loop
      vertex   -3.880000e+000 -3.200000e-001 1.000000e+002
      vertex   -3.885000e+000 -3.150000e-001 1.000000e+002
      vertex   -6.435000e+000 -3.150000e-001 1.000000e+002
    endloop
  endfacet
  facet normal 0.000000e+000 -0.000000e+000 1.000000e+000
    outer loop
      vertex   -6.440000e+000 -3.200000e-001 1.000000e+002
      vertex   -6.435000e+000 -3.150000e-001 1.000000e+002
      vertex   -6.440000e+000 3.200000e-001 1.000000e+002
    endloop
  endfacet
  facet normal -0.000000e+000 -0.000000e+000 1.000000e+000
    outer loop
      vertex   -6.440000e+000 -3.200000e-001 1.000000e+002
      vertex   -3.880000e+000 -3.200000e-001 1.000000e+002
      vertex   -6.435000e+000 -3.150000e-001 1.000000e+002
    endloop
  endfacet
  facet normal 0.000000e+000 0.000000e+000 1.000000e+000
    outer loop
      vertex   -3.880000e+000 3.200000e-001 1.000000e+002
      vertex   -3.885000e+000 -3.150000e-001 1.000000e+002
      vertex   -3.880000e+000 -3.200000e-001 1.000000e+002
    endloop
  endfacet
  facet normal -1.918291e-016 2.705951e-031 -1.000000e+000
    outer loop
      vertex   -6.435000e+000 -3.150000e-001 1.234420e-015
      vertex   -6.440000e+000 3.200000e-001 1.235380e-015
      vertex   -6.435000e+000 3.150000e-001 1.234420e-015
    endloop
  endfacet
  facet normal -1.918291e-016 -8.386477e-032 -1.000000e+000
    outer loop
      vertex   -6.435000e+000 -3.150000e-001 1.234420e-015
      vertex   -6.440000e+000 -3.200000e-001 1.235380e-015
      vertex   -6.440000e+000 3.200000e-001 1.235380e-015
    endloop
  endfacet
  facet normal -1.918291e-016 0.000000e+000 -1.000000e+000
    outer loop
      vertex   -6.435000e+000 -3.150000e-001 1.234420e-015
      vertex   -3.885000e+000 -3.150000e-001 7.452562e-016
      vertex   -6.440000e+000 -3.200000e-001 1.235380e-015
    endloop
  endfacet
  facet normal -1.918291e-016 1.700235e-029 -1.000000e+000
    outer loop
      vertex   -6.440000e+000 -3.200000e-001 1.235380e-015
      vertex   -3.885000e+000 -3.150000e-001 7.452562e-016
      vertex   -3.880000e+000 -3.200000e-001 7.442970e-016
    endloop
  endfacet
  facet normal -1.918291e-016 2.661319e-031 -1.000000e+000
    outer loop
      vertex   -3.880000e+000 -3.200000e-001 7.442970e-016
      vertex   -3.885000e+000 -3.150000e-001 7.452562e-016
      vertex   -3.880000e+000 3.200000e-001 7.442970e-016
    endloop
  endfacet
  facet normal -1.918291e-016 1.139220e-031 -1.000000e+000
    outer loop
      vertex   -3.880000e+000 3.200000e-001 7.442970e-016
      vertex   -3.885000e+000 -3.150000e-001 7.452562e-016
      vertex   -3.885000e+000 3.150000e-001 7.452562e-016
    endloop
  endfacet
  facet normal -1.918291e-016 2.749171e-030 -1.000000e+000
    outer loop
      vertex   -6.435000e+000 3.150000e-001 1.234420e-015
      vertex   -3.880000e+000 3.200000e-001 7.442970e-016
      vertex   -3.885000e+000 3.150000e-001 7.452562e-016
    endloop
  endfacet
  facet normal -1.918291e-016 -4.206953e-029 -1.000000e+000
    outer loop
      vertex   -6.435000e+000 3.150000e-001 1.234420e-015
      vertex   -6.440000e+000 3.200000e-001 1.235380e-015
      vertex   -3.880000e+000 3.200000e-001 7.442970e-016
    endloop
  endfacet
endsolid
