solid ascii
  facet normal 1.000000e+000 0.000000e+000 -1.953993e-016
    outer loop
      vertex   -6.435000e+000 4.185000e+000 1.000000e+002
      vertex   -6.435000e+000 4.185000e+000 1.234420e-015
      vertex   -6.435000e+000 4.815000e+000 1.000000e+002
    endloop
  endfacet
  facet normal 1.000000e+000 -1.409807e-015 -1.865175e-016
    outer loop
      vertex   -6.435000e+000 4.815000e+000 1.000000e+002
      vertex   -6.435000e+000 4.185000e+000 1.234420e-015
      vertex   -6.435000e+000 4.815000e+000 1.234420e-015
    endloop
  endfacet
  facet normal -2.089832e-015 -1.000000e+000 3.897901e-031
    outer loop
      vertex   -6.435000e+000 4.815000e+000 1.000000e+002
      vertex   -6.435000e+000 4.815000e+000 1.234420e-015
      vertex   -3.885000e+000 4.815000e+000 1.000000e+002
    endloop
  endfacet
  facet normal -2.089832e-015 -1.000000e+000 4.021644e-031
    outer loop
      vertex   -3.885000e+000 4.815000e+000 1.000000e+002
      vertex   -6.435000e+000 4.815000e+000 1.234420e-015
      vertex   -3.885000e+000 4.815000e+000 7.452562e-016
    endloop
  endfacet
  facet normal -1.000000e+000 1.409807e-015 1.909584e-016
    outer loop
      vertex   -3.885000e+000 4.815000e+000 1.000000e+002
      vertex   -3.885000e+000 4.815000e+000 7.452562e-016
      vertex   -3.885000e+000 4.185000e+000 1.000000e+002
    endloop
  endfacet
  facet normal -1.000000e+000 1.409807e-015 1.909584e-016
    outer loop
      vertex   -3.885000e+000 4.185000e+000 1.000000e+002
      vertex   -3.885000e+000 4.815000e+000 7.452562e-016
      vertex   -3.885000e+000 4.185000e+000 7.452562e-016
    endloop
  endfacet
  facet normal 2.438137e-015 1.000000e+000 -4.655826e-031
    outer loop
      vertex   -3.885000e+000 4.185000e+000 1.000000e+002
      vertex   -3.885000e+000 4.185000e+000 7.452562e-016
      vertex   -6.435000e+000 4.185000e+000 1.000000e+002
    endloop
  endfacet
  facet normal 2.438137e-015 1.000000e+000 -4.702230e-031
    outer loop
      vertex   -6.435000e+000 4.185000e+000 1.000000e+002
      vertex   -3.885000e+000 4.185000e+000 7.452562e-016
      vertex   -6.435000e+000 4.185000e+000 1.234420e-015
    endloop
  endfacet
  facet normal -1.000000e+000 2.775558e-015 1.953993e-016
    outer loop
      vertex   -6.440000e+000 4.820000e+000 1.000000e+002
      vertex   -6.440000e+000 4.820000e+000 1.235380e-015
      vertex   -6.440000e+000 4.180000e+000 1.000000e+002
    endloop
  endfacet
  facet normal -1.000000e+000 2.775558e-015 1.953993e-016
    outer loop
      vertex   -6.440000e+000 4.180000e+000 1.000000e+002
      vertex   -6.440000e+000 4.820000e+000 1.235380e-015
      vertex   -6.440000e+000 4.180000e+000 1.235380e-015
    endloop
  endfacet
  facet normal 2.428613e-015 1.000000e+000 -4.637639e-031
    outer loop
      vertex   -3.880000e+000 4.820000e+000 1.000000e+002
      vertex   -3.880000e+000 4.820000e+000 7.442970e-016
      vertex   -6.440000e+000 4.820000e+000 1.000000e+002
    endloop
  endfacet
  facet normal 2.428613e-015 1.000000e+000 -4.807121e-031
    outer loop
      vertex   -6.440000e+000 4.820000e+000 1.000000e+002
      vertex   -3.880000e+000 4.820000e+000 7.442970e-016
      vertex   -6.440000e+000 4.820000e+000 1.235380e-015
    endloop
  endfacet
  facet normal 1.000000e+000 -1.387779e-015 -1.909584e-016
    outer loop
      vertex   -3.880000e+000 4.180000e+000 1.000000e+002
      vertex   -3.880000e+000 4.180000e+000 7.442970e-016
      vertex   -3.880000e+000 4.820000e+000 1.000000e+002
    endloop
  endfacet
  facet normal 1.000000e+000 -1.387779e-015 -1.909584e-016
    outer loop
      vertex   -3.880000e+000 4.820000e+000 1.000000e+002
      vertex   -3.880000e+000 4.180000e+000 7.442970e-016
      vertex   -3.880000e+000 4.820000e+000 7.442970e-016
    endloop
  endfacet
  facet normal -2.081668e-015 -1.000000e+000 4.067564e-031
    outer loop
      vertex   -6.440000e+000 4.180000e+000 1.000000e+002
      vertex   -6.440000e+000 4.180000e+000 1.235380e-015
      vertex   -3.880000e+000 4.180000e+000 1.000000e+002
    endloop
  endfacet
  facet normal -2.081668e-015 -1.000000e+000 3.944305e-031
    outer loop
      vertex   -3.880000e+000 4.180000e+000 1.000000e+002
      vertex   -6.440000e+000 4.180000e+000 1.235380e-015
      vertex   -3.880000e+000 4.180000e+000 7.442970e-016
    endloop
  endfacet
  facet normal 0.000000e+000 0.000000e+000 1.000000e+000
    outer loop
      vertex   -6.435000e+000 4.815000e+000 1.000000e+002
      vertex   -6.440000e+000 4.820000e+000 1.000000e+002
      vertex   -6.435000e+000 4.185000e+000 1.000000e+002
    endloop
  endfacet
  facet normal -0.000000e+000 -0.000000e+000 1.000000e+000
    outer loop
      vertex   -6.435000e+000 4.815000e+000 1.000000e+002
      vertex   -3.885000e+000 4.815000e+000 1.000000e+002
      vertex   -6.440000e+000 4.820000e+000 1.000000e+002
    endloop
  endfacet
  facet normal -0.000000e+000 0.000000e+000 1.000000e+000
    outer loop
      vertex   -6.440000e+000 4.820000e+000 1.000000e+002
      vertex   -3.885000e+000 4.815000e+000 1.000000e+002
      vertex   -3.880000e+000 4.820000e+000 1.000000e+002
    endloop
  endfacet
  facet normal 0.000000e+000 0.000000e+000 1.000000e+000
    outer loop
      vertex   -3.880000e+000 4.820000e+000 1.000000e+002
      vertex   -3.885000e+000 4.815000e+000 1.000000e+002
      vertex   -3.885000e+000 4.185000e+000 1.000000e+002
    endloop
  endfacet
  facet normal 0.000000e+000 0.000000e+000 1.000000e+000
    outer loop
      vertex   -3.880000e+000 4.180000e+000 1.000000e+002
      vertex   -3.885000e+000 4.185000e+000 1.000000e+002
      vertex   -6.435000e+000 4.185000e+000 1.000000e+002
    endloop
  endfacet
  facet normal 0.000000e+000 -0.000000e+000 1.000000e+000
    outer loop
      vertex   -6.440000e+000 4.180000e+000 1.000000e+002
      vertex   -6.435000e+000 4.185000e+000 1.000000e+002
      vertex   -6.440000e+000 4.820000e+000 1.000000e+002
    endloop
  endfacet
  facet normal -0.000000e+000 -0.000000e+000 1.000000e+000
    outer loop
      vertex   -6.440000e+000 4.180000e+000 1.000000e+002
      vertex   -3.880000e+000 4.180000e+000 1.000000e+002
      vertex   -6.435000e+000 4.185000e+000 1.000000e+002
    endloop
  endfacet
  facet normal 0.000000e+000 0.000000e+000 1.000000e+000
    outer loop
      vertex   -3.880000e+000 4.820000e+000 1.000000e+002
      vertex   -3.885000e+000 4.185000e+000 1.000000e+002
      vertex   -3.880000e+000 4.180000e+000 1.000000e+002
    endloop
  endfacet
  facet normal -1.918291e-016 2.705951e-031 -1.000000e+000
    outer loop
      vertex   -6.435000e+000 4.185000e+000 1.234420e-015
      vertex   -6.440000e+000 4.820000e+000 1.235380e-015
      vertex   -6.435000e+000 4.815000e+000 1.234420e-015
    endloop
  endfacet
  facet normal -1.918291e-016 -8.386477e-032 -1.000000e+000
    outer loop
      vertex   -6.435000e+000 4.185000e+000 1.234420e-015
      vertex   -6.440000e+000 4.180000e+000 1.235380e-015
      vertex   -6.440000e+000 4.820000e+000 1.235380e-015
    endloop
  endfacet
  facet normal -1.918291e-016 0.000000e+000 -1.000000e+000
    outer loop
      vertex   -6.435000e+000 4.185000e+000 1.234420e-015
      vertex   -3.885000e+000 4.185000e+000 7.452562e-016
      vertex   -6.440000e+000 4.180000e+000 1.235380e-015
    endloop
  endfacet
  facet normal -1.918291e-016 -2.708339e-030 -1.000000e+000
    outer loop
      vertex   -6.440000e+000 4.180000e+000 1.235380e-015
      vertex   -3.885000e+000 4.185000e+000 7.452562e-016
      vertex   -3.880000e+000 4.180000e+000 7.442970e-016
    endloop
  endfacet
  facet normal -1.918291e-016 1.121422e-031 -1.000000e+000
    outer loop
      vertex   -3.880000e+000 4.180000e+000 7.442970e-016
      vertex   -3.885000e+000 4.185000e+000 7.452562e-016
      vertex   -3.880000e+000 4.820000e+000 7.442970e-016
    endloop
  endfacet
  facet normal -1.918291e-016 1.139220e-031 -1.000000e+000
    outer loop
      vertex   -3.880000e+000 4.820000e+000 7.442970e-016
      vertex   -3.885000e+000 4.185000e+000 7.452562e-016
      vertex   -3.885000e+000 4.815000e+000 7.452562e-016
    endloop
  endfacet
  facet normal -1.918291e-016 2.749171e-030 -1.000000e+000
    outer loop
      vertex   -6.435000e+000 4.815000e+000 1.234420e-015
      vertex   -3.880000e+000 4.820000e+000 7.442970e-016
      vertex   -3.885000e+000 4.815000e+000 7.452562e-016
    endloop
  endfacet
  facet normal -1.918291e-016 -4.206953e-029 -1.000000e+000
    outer loop
      vertex   -6.435000e+000 4.815000e+000 1.234420e-015
      vertex   -6.440000e+000 4.820000e+000 1.235380e-015
      vertex   -3.880000e+000 4.820000e+000 7.442970e-016
    endloop
  endfacet
endsolid
