solid ascii
  facet normal 1.000000e+000 -1.409807e-015 -1.909584e-016
    outer loop
      vertex   -1.275000e+000 -3.150000e-001 1.000000e+002
      vertex   -1.275000e+000 -3.150000e-001 2.445821e-016
      vertex   -1.275000e+000 3.150000e-001 1.000000e+002
    endloop
  endfacet
  facet normal 1.000000e+000 -1.409807e-015 -1.909584e-016
    outer loop
      vertex   -1.275000e+000 3.150000e-001 1.000000e+002
      vertex   -1.275000e+000 -3.150000e-001 2.445821e-016
      vertex   -1.275000e+000 3.150000e-001 2.445821e-016
    endloop
  endfacet
  facet normal -1.980986e-015 -1.000000e+000 3.782859e-031
    outer loop
      vertex   -1.275000e+000 3.150000e-001 1.000000e+002
      vertex   -1.275000e+000 3.150000e-001 2.445821e-016
      vertex   1.275000e+000 3.150000e-001 1.000000e+002
    endloop
  endfacet
  facet normal -1.980986e-015 -1.000000e+000 3.774158e-031
    outer loop
      vertex   1.275000e+000 3.150000e-001 1.000000e+002
      vertex   -1.275000e+000 3.150000e-001 2.445821e-016
      vertex   1.275000e+000 3.150000e-001 -2.445821e-016
    endloop
  endfacet
  facet normal -1.000000e+000 1.409807e-015 1.909584e-016
    outer loop
      vertex   1.275000e+000 3.150000e-001 1.000000e+002
      vertex   1.275000e+000 3.150000e-001 -2.445821e-016
      vertex   1.275000e+000 -3.150000e-001 1.000000e+002
    endloop
  endfacet
  facet normal -1.000000e+000 1.409807e-015 1.909584e-016
    outer loop
      vertex   1.275000e+000 -3.150000e-001 1.000000e+002
      vertex   1.275000e+000 3.150000e-001 -2.445821e-016
      vertex   1.275000e+000 -3.150000e-001 -2.445821e-016
    endloop
  endfacet
  facet normal 2.372830e-015 1.000000e+000 -4.531116e-031
    outer loop
      vertex   1.275000e+000 -3.150000e-001 1.000000e+002
      vertex   1.275000e+000 -3.150000e-001 -2.445821e-016
      vertex   -1.275000e+000 -3.150000e-001 1.000000e+002
    endloop
  endfacet
  facet normal 2.372830e-015 1.000000e+000 -4.578487e-031
    outer loop
      vertex   -1.275000e+000 -3.150000e-001 1.000000e+002
      vertex   1.275000e+000 -3.150000e-001 -2.445821e-016
      vertex   -1.275000e+000 -3.150000e-001 2.445821e-016
    endloop
  endfacet
  facet normal -1.000000e+000 2.775558e-015 1.909584e-016
    outer loop
      vertex   -1.280000e+000 3.200000e-001 1.000000e+002
      vertex   -1.280000e+000 3.200000e-001 2.455413e-016
      vertex   -1.280000e+000 -3.200000e-001 1.000000e+002
    endloop
  endfacet
  facet normal -1.000000e+000 2.775558e-015 1.909584e-016
    outer loop
      vertex   -1.280000e+000 -3.200000e-001 1.000000e+002
      vertex   -1.280000e+000 3.200000e-001 2.455413e-016
      vertex   -1.280000e+000 -3.200000e-001 2.455413e-016
    endloop
  endfacet
  facet normal 2.168404e-015 1.000000e+000 -4.140749e-031
    outer loop
      vertex   1.280000e+000 3.200000e-001 1.000000e+002
      vertex   1.280000e+000 3.200000e-001 -2.455413e-016
      vertex   -1.280000e+000 3.200000e-001 1.000000e+002
    endloop
  endfacet
  facet normal 2.168404e-015 1.000000e+000 -4.129194e-031
    outer loop
      vertex   -1.280000e+000 3.200000e-001 1.000000e+002
      vertex   1.280000e+000 3.200000e-001 -2.455413e-016
      vertex   -1.280000e+000 3.200000e-001 2.455413e-016
    endloop
  endfacet
  facet normal 1.000000e+000 -1.387779e-015 -1.909584e-016
    outer loop
      vertex   1.280000e+000 -3.200000e-001 1.000000e+002
      vertex   1.280000e+000 -3.200000e-001 -2.455413e-016
      vertex   1.280000e+000 3.200000e-001 1.000000e+002
    endloop
  endfacet
  facet normal 1.000000e+000 -1.387779e-015 -1.909584e-016
    outer loop
      vertex   1.280000e+000 3.200000e-001 1.000000e+002
      vertex   1.280000e+000 -3.200000e-001 -2.455413e-016
      vertex   1.280000e+000 3.200000e-001 -2.455413e-016
    endloop
  endfacet
  facet normal -2.276825e-015 -1.000000e+000 4.347787e-031
    outer loop
      vertex   -1.280000e+000 -3.200000e-001 1.000000e+002
      vertex   -1.280000e+000 -3.200000e-001 2.455413e-016
      vertex   1.280000e+000 -3.200000e-001 1.000000e+002
    endloop
  endfacet
  facet normal -2.276825e-015 -1.000000e+000 4.314083e-031
    outer loop
      vertex   1.280000e+000 -3.200000e-001 1.000000e+002
      vertex   -1.280000e+000 -3.200000e-001 2.455413e-016
      vertex   1.280000e+000 -3.200000e-001 -2.455413e-016
    endloop
  endfacet
  facet normal 0.000000e+000 0.000000e+000 1.000000e+000
    outer loop
      vertex   -1.275000e+000 3.150000e-001 1.000000e+002
      vertex   -1.280000e+000 3.200000e-001 1.000000e+002
      vertex   -1.275000e+000 -3.150000e-001 1.000000e+002
    endloop
  endfacet
  facet normal -0.000000e+000 -0.000000e+000 1.000000e+000
    outer loop
      vertex   -1.275000e+000 3.150000e-001 1.000000e+002
      vertex   1.275000e+000 3.150000e-001 1.000000e+002
      vertex   -1.280000e+000 3.200000e-001 1.000000e+002
    endloop
  endfacet
  facet normal -0.000000e+000 0.000000e+000 1.000000e+000
    outer loop
      vertex   -1.280000e+000 3.200000e-001 1.000000e+002
      vertex   1.275000e+000 3.150000e-001 1.000000e+002
      vertex   1.280000e+000 3.200000e-001 1.000000e+002
    endloop
  endfacet
  facet normal 0.000000e+000 0.000000e+000 1.000000e+000
    outer loop
      vertex   1.280000e+000 3.200000e-001 1.000000e+002
      vertex   1.275000e+000 3.150000e-001 1.000000e+002
      vertex   1.275000e+000 -3.150000e-001 1.000000e+002
    endloop
  endfacet
  facet normal 0.000000e+000 0.000000e+000 1.000000e+000
    outer loop
      vertex   1.280000e+000 -3.200000e-001 1.000000e+002
      vertex   1.275000e+000 -3.150000e-001 1.000000e+002
      vertex   -1.275000e+000 -3.150000e-001 1.000000e+002
    endloop
  endfacet
  facet normal 0.000000e+000 -0.000000e+000 1.000000e+000
    outer loop
      vertex   -1.280000e+000 -3.200000e-001 1.000000e+002
      vertex   -1.275000e+000 -3.150000e-001 1.000000e+002
      vertex   -1.280000e+000 3.200000e-001 1.000000e+002
    endloop
  endfacet
  facet normal -0.000000e+000 -0.000000e+000 1.000000e+000
    outer loop
      vertex   -1.280000e+000 -3.200000e-001 1.000000e+002
      vertex   1.280000e+000 -3.200000e-001 1.000000e+002
      vertex   -1.275000e+000 -3.150000e-001 1.000000e+002
    endloop
  endfacet
  facet normal 0.000000e+000 0.000000e+000 1.000000e+000
    outer loop
      vertex   1.280000e+000 3.200000e-001 1.000000e+002
      vertex   1.275000e+000 -3.150000e-001 1.000000e+002
      vertex   1.280000e+000 -3.200000e-001 1.000000e+002
    endloop
  endfacet
  facet normal -1.918291e-016 3.582459e-032 -1.000000e+000
    outer loop
      vertex   -1.275000e+000 -3.150000e-001 2.445821e-016
      vertex   -1.280000e+000 3.200000e-001 2.455413e-016
      vertex   -1.275000e+000 3.150000e-001 2.445821e-016
    endloop
  endfacet
  facet normal -1.918291e-016 7.020962e-032 -1.000000e+000
    outer loop
      vertex   -1.275000e+000 -3.150000e-001 2.445821e-016
      vertex   -1.280000e+000 -3.200000e-001 2.455413e-016
      vertex   -1.280000e+000 3.200000e-001 2.455413e-016
    endloop
  endfacet
  facet normal -1.918291e-016 1.546786e-029 -1.000000e+000
    outer loop
      vertex   -1.275000e+000 -3.150000e-001 2.445821e-016
      vertex   1.275000e+000 -3.150000e-001 -2.445821e-016
      vertex   -1.280000e+000 -3.200000e-001 2.455413e-016
    endloop
  endfacet
  facet normal -1.918291e-016 7.131959e-030 -1.000000e+000
    outer loop
      vertex   -1.280000e+000 -3.200000e-001 2.455413e-016
      vertex   1.275000e+000 -3.150000e-001 -2.445821e-016
      vertex   1.280000e+000 -3.200000e-001 -2.455413e-016
    endloop
  endfacet
  facet normal -1.918291e-016 1.121422e-031 -1.000000e+000
    outer loop
      vertex   1.280000e+000 -3.200000e-001 -2.455413e-016
      vertex   1.275000e+000 -3.150000e-001 -2.445821e-016
      vertex   1.280000e+000 3.200000e-001 -2.455413e-016
    endloop
  endfacet
  facet normal -1.918291e-016 3.566203e-032 -1.000000e+000
    outer loop
      vertex   1.280000e+000 3.200000e-001 -2.455413e-016
      vertex   1.275000e+000 -3.150000e-001 -2.445821e-016
      vertex   1.275000e+000 3.150000e-001 -2.445821e-016
    endloop
  endfacet
  facet normal -1.918291e-016 2.749171e-030 -1.000000e+000
    outer loop
      vertex   -1.275000e+000 3.150000e-001 2.445821e-016
      vertex   1.280000e+000 3.200000e-001 -2.455413e-016
      vertex   1.275000e+000 3.150000e-001 -2.445821e-016
    endloop
  endfacet
  facet normal -1.918291e-016 4.483806e-030 -1.000000e+000
    outer loop
      vertex   -1.275000e+000 3.150000e-001 2.445821e-016
      vertex   -1.280000e+000 3.200000e-001 2.455413e-016
      vertex   1.280000e+000 3.200000e-001 -2.455413e-016
    endloop
  endfacet
endsolid
