solid ascii
  facet normal 1.000000e+000 -1.409807e-015 -1.909584e-016
    outer loop
      vertex   -1.275000e+000 6.765000e+000 1.000000e+002
      vertex   -1.275000e+000 6.765000e+000 2.445821e-016
      vertex   -1.275000e+000 7.395000e+000 1.000000e+002
    endloop
  endfacet
  facet normal 1.000000e+000 -1.409807e-015 -1.909584e-016
    outer loop
      vertex   -1.275000e+000 7.395000e+000 1.000000e+002
      vertex   -1.275000e+000 6.765000e+000 2.445821e-016
      vertex   -1.275000e+000 7.395000e+000 2.445821e-016
    endloop
  endfacet
  facet normal -2.089832e-015 -1.000000e+000 3.990708e-031
    outer loop
      vertex   -1.275000e+000 7.395000e+000 1.000000e+002
      vertex   -1.275000e+000 7.395000e+000 2.445821e-016
      vertex   1.275000e+000 7.395000e+000 1.000000e+002
    endloop
  endfacet
  facet normal -2.089832e-015 -1.000000e+000 4.021644e-031
    outer loop
      vertex   1.275000e+000 7.395000e+000 1.000000e+002
      vertex   -1.275000e+000 7.395000e+000 2.445821e-016
      vertex   1.275000e+000 7.395000e+000 -2.445821e-016
    endloop
  endfacet
  facet normal -1.000000e+000 1.409807e-015 1.909584e-016
    outer loop
      vertex   1.275000e+000 7.395000e+000 1.000000e+002
      vertex   1.275000e+000 7.395000e+000 -2.445821e-016
      vertex   1.275000e+000 6.765000e+000 1.000000e+002
    endloop
  endfacet
  facet normal -1.000000e+000 1.409807e-015 1.909584e-016
    outer loop
      vertex   1.275000e+000 6.765000e+000 1.000000e+002
      vertex   1.275000e+000 7.395000e+000 -2.445821e-016
      vertex   1.275000e+000 6.765000e+000 -2.445821e-016
    endloop
  endfacet
  facet normal 2.438137e-015 1.000000e+000 -4.655826e-031
    outer loop
      vertex   1.275000e+000 6.765000e+000 1.000000e+002
      vertex   1.275000e+000 6.765000e+000 -2.445821e-016
      vertex   -1.275000e+000 6.765000e+000 1.000000e+002
    endloop
  endfacet
  facet normal 2.438137e-015 1.000000e+000 -4.578487e-031
    outer loop
      vertex   -1.275000e+000 6.765000e+000 1.000000e+002
      vertex   1.275000e+000 6.765000e+000 -2.445821e-016
      vertex   -1.275000e+000 6.765000e+000 2.445821e-016
    endloop
  endfacet
  facet normal -1.000000e+000 2.775558e-015 1.909584e-016
    outer loop
      vertex   -1.280000e+000 7.400000e+000 1.000000e+002
      vertex   -1.280000e+000 7.400000e+000 2.455413e-016
      vertex   -1.280000e+000 6.760000e+000 1.000000e+002
    endloop
  endfacet
  facet normal -1.000000e+000 2.775558e-015 1.909584e-016
    outer loop
      vertex   -1.280000e+000 6.760000e+000 1.000000e+002
      vertex   -1.280000e+000 7.400000e+000 2.455413e-016
      vertex   -1.280000e+000 6.760000e+000 2.455413e-016
    endloop
  endfacet
  facet normal 2.428613e-015 1.000000e+000 -4.637639e-031
    outer loop
      vertex   1.280000e+000 7.400000e+000 1.000000e+002
      vertex   1.280000e+000 7.400000e+000 -2.455413e-016
      vertex   -1.280000e+000 7.400000e+000 1.000000e+002
    endloop
  endfacet
  facet normal 2.428613e-015 1.000000e+000 -4.683862e-031
    outer loop
      vertex   -1.280000e+000 7.400000e+000 1.000000e+002
      vertex   1.280000e+000 7.400000e+000 -2.455413e-016
      vertex   -1.280000e+000 7.400000e+000 2.455413e-016
    endloop
  endfacet
  facet normal 1.000000e+000 -1.387779e-015 -1.909584e-016
    outer loop
      vertex   1.280000e+000 6.760000e+000 1.000000e+002
      vertex   1.280000e+000 6.760000e+000 -2.455413e-016
      vertex   1.280000e+000 7.400000e+000 1.000000e+002
    endloop
  endfacet
  facet normal 1.000000e+000 -1.387779e-015 -1.909584e-016
    outer loop
      vertex   1.280000e+000 7.400000e+000 1.000000e+002
      vertex   1.280000e+000 6.760000e+000 -2.455413e-016
      vertex   1.280000e+000 7.400000e+000 -2.455413e-016
    endloop
  endfacet
  facet normal -2.081668e-015 -1.000000e+000 3.975119e-031
    outer loop
      vertex   -1.280000e+000 6.760000e+000 1.000000e+002
      vertex   -1.280000e+000 6.760000e+000 2.455413e-016
      vertex   1.280000e+000 6.760000e+000 1.000000e+002
    endloop
  endfacet
  facet normal -2.081668e-015 -1.000000e+000 4.005934e-031
    outer loop
      vertex   1.280000e+000 6.760000e+000 1.000000e+002
      vertex   -1.280000e+000 6.760000e+000 2.455413e-016
      vertex   1.280000e+000 6.760000e+000 -2.455413e-016
    endloop
  endfacet
  facet normal 0.000000e+000 0.000000e+000 1.000000e+000
    outer loop
      vertex   -1.275000e+000 7.395000e+000 1.000000e+002
      vertex   -1.280000e+000 7.400000e+000 1.000000e+002
      vertex   -1.275000e+000 6.765000e+000 1.000000e+002
    endloop
  endfacet
  facet normal -0.000000e+000 -0.000000e+000 1.000000e+000
    outer loop
      vertex   -1.275000e+000 7.395000e+000 1.000000e+002
      vertex   1.275000e+000 7.395000e+000 1.000000e+002
      vertex   -1.280000e+000 7.400000e+000 1.000000e+002
    endloop
  endfacet
  facet normal -0.000000e+000 0.000000e+000 1.000000e+000
    outer loop
      vertex   -1.280000e+000 7.400000e+000 1.000000e+002
      vertex   1.275000e+000 7.395000e+000 1.000000e+002
      vertex   1.280000e+000 7.400000e+000 1.000000e+002
    endloop
  endfacet
  facet normal 0.000000e+000 0.000000e+000 1.000000e+000
    outer loop
      vertex   1.280000e+000 7.400000e+000 1.000000e+002
      vertex   1.275000e+000 7.395000e+000 1.000000e+002
      vertex   1.275000e+000 6.765000e+000 1.000000e+002
    endloop
  endfacet
  facet normal 0.000000e+000 0.000000e+000 1.000000e+000
    outer loop
      vertex   1.280000e+000 6.760000e+000 1.000000e+002
      vertex   1.275000e+000 6.765000e+000 1.000000e+002
      vertex   -1.275000e+000 6.765000e+000 1.000000e+002
    endloop
  endfacet
  facet normal 0.000000e+000 -0.000000e+000 1.000000e+000
    outer loop
      vertex   -1.280000e+000 6.760000e+000 1.000000e+002
      vertex   -1.275000e+000 6.765000e+000 1.000000e+002
      vertex   -1.280000e+000 7.400000e+000 1.000000e+002
    endloop
  endfacet
  facet normal -0.000000e+000 -0.000000e+000 1.000000e+000
    outer loop
      vertex   -1.280000e+000 6.760000e+000 1.000000e+002
      vertex   1.280000e+000 6.760000e+000 1.000000e+002
      vertex   -1.275000e+000 6.765000e+000 1.000000e+002
    endloop
  endfacet
  facet normal 0.000000e+000 0.000000e+000 1.000000e+000
    outer loop
      vertex   1.280000e+000 7.400000e+000 1.000000e+002
      vertex   1.275000e+000 6.765000e+000 1.000000e+002
      vertex   1.280000e+000 6.760000e+000 1.000000e+002
    endloop
  endfacet
  facet normal -1.918291e-016 1.139222e-031 -1.000000e+000
    outer loop
      vertex   -1.275000e+000 6.765000e+000 2.445821e-016
      vertex   -1.280000e+000 7.400000e+000 2.455413e-016
      vertex   -1.275000e+000 7.395000e+000 2.445821e-016
    endloop
  endfacet
  facet normal -1.918291e-016 7.020962e-032 -1.000000e+000
    outer loop
      vertex   -1.275000e+000 6.765000e+000 2.445821e-016
      vertex   -1.280000e+000 6.760000e+000 2.455413e-016
      vertex   -1.280000e+000 7.400000e+000 2.455413e-016
    endloop
  endfacet
  facet normal -1.918291e-016 0.000000e+000 -1.000000e+000
    outer loop
      vertex   -1.275000e+000 6.765000e+000 2.445821e-016
      vertex   1.275000e+000 6.765000e+000 -2.445821e-016
      vertex   -1.280000e+000 6.760000e+000 2.455413e-016
    endloop
  endfacet
  facet normal -1.918291e-016 -2.708339e-030 -1.000000e+000
    outer loop
      vertex   -1.280000e+000 6.760000e+000 2.455413e-016
      vertex   1.275000e+000 6.765000e+000 -2.445821e-016
      vertex   1.280000e+000 6.760000e+000 -2.455413e-016
    endloop
  endfacet
  facet normal -1.918291e-016 3.526483e-032 -1.000000e+000
    outer loop
      vertex   1.280000e+000 6.760000e+000 -2.455413e-016
      vertex   1.275000e+000 6.765000e+000 -2.445821e-016
      vertex   1.280000e+000 7.400000e+000 -2.455413e-016
    endloop
  endfacet
  facet normal -1.918291e-016 1.139220e-031 -1.000000e+000
    outer loop
      vertex   1.280000e+000 7.400000e+000 -2.455413e-016
      vertex   1.275000e+000 6.765000e+000 -2.445821e-016
      vertex   1.275000e+000 7.395000e+000 -2.445821e-016
    endloop
  endfacet
  facet normal -1.918291e-016 -7.129717e-030 -1.000000e+000
    outer loop
      vertex   -1.275000e+000 7.395000e+000 2.445821e-016
      vertex   1.280000e+000 7.400000e+000 -2.455413e-016
      vertex   1.275000e+000 7.395000e+000 -2.445821e-016
    endloop
  endfacet
  facet normal -1.918291e-016 -5.356493e-030 -1.000000e+000
    outer loop
      vertex   -1.275000e+000 7.395000e+000 2.445821e-016
      vertex   -1.280000e+000 7.400000e+000 2.455413e-016
      vertex   1.280000e+000 7.400000e+000 -2.455413e-016
    endloop
  endfacet
endsolid
